<svg width="34" height="38" viewBox="0 0 34 38" fill="none" xmlns="http://www.w3.org/2000/svg">
<path d="M31.537 29.8291L25.8268 24.1202L24.1018 22.3956C23.6498 23.0735 23.0669 23.6563 22.4007 24.0964C21.4252 24.7505 20.2593 25.1311 18.9983 25.1311C18.6652 25.1311 18.3322 25.1074 18.011 25.0479C17.8682 25.0241 17.7373 25.0003 17.5946 24.9646C16.1194 24.6197 14.8584 23.7396 14.0019 22.5502C13.2881 21.5512 12.8718 20.3261 12.8718 18.9941C12.8718 17.662 13.2881 16.4488 14.0019 15.4379C14.109 15.2833 14.216 15.1405 14.335 15.0097C15.1677 14.0344 16.2979 13.3327 17.5827 13.0235C17.8682 12.9521 18.1775 12.9045 18.4749 12.8807C18.6415 12.857 18.808 12.857 18.9864 12.857C20.2475 12.857 21.4133 13.2376 22.3888 13.8917C23.0669 14.3437 23.6498 14.9264 24.0899 15.5925L25.8149 13.8679L33.2382 6.44632C32.7028 5.83975 32.1318 5.26885 31.537 4.74554C28.1942 1.79593 23.7925 0 18.9864 0C11.5156 0 5.04402 4.32926 1.93909 10.6091H4.68713C7.56603 5.70892 12.8956 2.4144 18.9864 2.4144C23.1263 2.4144 26.9213 3.93678 29.8239 6.45822L24.1137 12.1671C22.6862 11.0848 20.9017 10.4545 18.9864 10.4545C18.4154 10.4545 17.8563 10.5139 17.321 10.621C15.596 10.9659 14.0614 11.8222 12.8718 13.0354H3.5213H0.951705C0.689987 13.8203 0.475854 14.6291 0.333099 15.4498C0.10707 16.6034 0 17.7928 0 18.9941C0 20.1953 0.118966 21.3966 0.333099 22.5502C0.48775 23.3709 0.689987 24.1797 0.951705 24.9646H12.8837C14.0614 26.1778 15.6079 27.0341 17.3329 27.379C17.8682 27.4861 18.4273 27.5455 18.9983 27.5455C20.9255 27.5455 22.6981 26.9033 24.1256 25.8329L29.8358 31.5418C26.9331 34.0632 23.1382 35.5856 18.9983 35.5856C12.9075 35.5856 7.57792 32.2911 4.69903 27.3909H1.95099C5.05592 33.6707 11.5275 38 18.9983 38C23.8044 38 28.2061 36.2041 31.5489 33.2545C32.1556 32.7192 32.7266 32.1484 33.2501 31.5537L31.537 29.841V29.8291ZM2.78373 22.5502C2.53391 21.4085 2.40305 20.2191 2.40305 18.9941C2.40305 17.769 2.53391 16.5915 2.78373 15.4498H11.2063C10.7066 16.5321 10.433 17.7333 10.433 18.9941C10.433 20.2548 10.7066 21.4679 11.2063 22.5502H2.77183H2.78373Z" fill="#2779A7"/>
</svg>
