<svg width="52" height="50" viewBox="0 0 52 50" fill="none" xmlns="http://www.w3.org/2000/svg">
<path d="M41.3998 36.7891C43.2908 36.7891 44.8295 38.328 44.8295 40.2188V42.6221H46.3168C48.191 42.6221 49.7094 44.1402 49.7094 46.0068V48.3604H50.9633C51.4157 48.3604 51.7826 48.7267 51.7826 49.1787C51.7826 49.6307 51.4157 49.9971 50.9633 49.9971H10.9496C10.4972 49.9971 10.1313 49.6307 10.1313 49.1787C10.1313 48.7267 10.4972 48.3604 10.9496 48.3604H12.2084V46.0068C12.2084 44.1403 13.7268 42.6221 15.5932 42.6221H17.0824V40.2188C17.0824 38.328 18.6216 36.7891 20.5121 36.7891H41.3998ZM20.5121 38.4258C19.5219 38.4258 18.7192 39.2284 18.7192 40.2188V42.5762H43.1928V40.2188C43.1928 39.2284 42.3902 38.4258 41.3998 38.4258H20.5121ZM42.727 0C47.4743 0 51.3373 3.87179 51.3373 8.61914C51.3372 13.3664 47.4742 17.2217 42.727 17.2217C41.7529 17.2217 40.8033 17.0581 39.8949 16.7471C40.6886 18.6127 41.1879 20.5274 41.3598 22.3604C42.4335 22.2219 43.5402 22.7161 44.1264 23.71C44.944 25.1436 44.3848 26.8077 43.1401 27.5381L31.3852 34.4795C29.9172 35.302 28.2775 34.7263 27.5483 33.4873C26.9631 32.4979 27.0653 31.2878 27.7065 30.4121C27.7044 30.4106 27.7019 30.4087 27.6996 30.4072C26.2263 29.4004 24.8343 28.0908 23.6147 26.5684L16.5024 30.7676C16.7777 31.4582 16.5243 32.2629 15.8715 32.6553L6.79045 38.0078C4.67333 39.2434 2.02725 38.5145 0.822673 36.4736C-0.398962 34.4047 0.286681 31.728 2.35685 30.5059L11.4379 25.1523C12.0856 24.776 12.898 24.8935 13.3998 25.5049L20.5043 21.3135C19.7593 19.5048 19.2851 17.6465 19.1215 15.8623V15.8613C18.0445 15.9981 16.9406 15.5059 16.3569 14.5146C15.5736 13.1908 16.0184 11.4697 17.3422 10.6865L29.099 3.75293C30.4303 2.96811 32.1493 3.40522 32.934 4.73633C33.0788 4.98939 33.1873 5.25949 33.2504 5.53906C33.4298 6.33398 33.2459 7.16338 32.767 7.8125C32.7691 7.81399 32.7717 7.81492 32.7738 7.81641C33.2322 8.12745 33.6824 8.46375 34.1244 8.83203C34.1164 8.75846 34.1166 8.69269 34.1166 8.61914C34.1166 3.87183 37.9795 5.59938e-05 42.727 0ZM14.2924 26.8799L15.7328 29.3184L22.6332 25.2432C21.7309 23.8901 21.5824 23.5287 21.1918 22.8037L14.2924 26.8799ZM42.727 1.63672C38.88 1.63677 35.7533 4.77221 35.7533 8.61914C35.7534 9.8222 36.0654 11.0077 36.6615 12.0566C36.7762 12.2612 36.8006 12.49 36.727 12.7109C36.7779 12.5495 35.9513 15.174 35.9252 15.2568C36.0625 15.2092 38.2226 14.46 38.307 14.4307C38.5662 14.3526 38.8179 14.396 39.0112 14.5117C40.116 15.2156 41.4091 15.584 42.727 15.584C46.5737 15.584 49.7004 12.4659 49.7006 8.61914C49.7006 4.77217 46.5738 1.63672 42.727 1.63672ZM39.1879 7.35938C39.8835 7.35938 40.4484 7.92391 40.4487 8.61133C40.4487 9.29882 39.8837 9.86426 39.1879 9.86426C38.5087 9.86424 37.9438 9.29881 37.9438 8.61133C37.944 7.92392 38.5088 7.3594 39.1879 7.35938ZM42.977 7.35938C43.6724 7.35938 44.2297 7.92391 44.2299 8.61133C44.2299 9.29882 43.6725 9.86426 42.977 9.86426C42.2895 9.86399 41.725 9.29866 41.725 8.61133C41.7252 7.92407 42.2896 7.35964 42.977 7.35938ZM46.766 7.35938C47.4536 7.35938 48.0187 7.92391 48.019 8.61133C48.019 9.29882 47.4537 9.86426 46.766 9.86426C46.0787 9.8641 45.5141 9.29873 45.5141 8.61133C45.5143 7.92401 46.0788 7.35953 46.766 7.35938Z" fill="white"/>
</svg>
