<svg width="54" height="67" viewBox="0 0 54 67" fill="none" xmlns="http://www.w3.org/2000/svg">
<path fill-rule="evenodd" clip-rule="evenodd" d="M30.3489 56.8004C29.0474 56.8004 27.8962 56.0559 27.3251 54.9437H33.3727C32.8046 56.0559 31.6534 56.8004 30.3489 56.8004ZM9.57946 56.8004C8.27798 56.8004 7.12678 56.0559 6.55568 54.9437H12.6032C12.0352 56.0559 10.8809 56.8004 9.57946 56.8004ZM9.57946 47.6234L12.2997 52.9198H6.86231L9.57946 47.6234ZM33.069 52.9168H27.6286L30.3489 47.6204L33.069 52.9168ZM35.6149 53.4638L31.2415 44.9527C31.0431 44.6184 30.7636 44.4057 30.3488 44.4057L9.42002 44.4148C9.14349 44.4331 8.83991 44.6823 8.68663 44.9527L4.31328 53.4638H4.31629C4.22311 53.6431 4.18403 53.8497 4.21109 54.0533C4.55074 56.782 6.85913 58.8362 9.57935 58.8362C12.2996 58.8362 14.608 56.782 14.9476 54.0533C14.9717 53.8467 14.9326 53.6431 14.8424 53.4638L11.2325 46.4322H18.9603V60.6749H16.2462C15.6901 60.6749 15.2422 61.1277 15.2422 61.6929C15.2422 62.2489 15.6901 62.7017 16.2462 62.7017H23.6854C24.2414 62.7017 24.6893 62.249 24.6893 61.6929C24.6893 61.1277 24.2414 60.6749 23.6854 60.6749H20.9682V46.4322H28.6991L25.0892 53.4638C24.996 53.6431 24.9569 53.8497 24.984 54.0533C25.3266 56.782 27.632 58.8362 30.3523 58.8362C33.0725 58.8362 35.3809 56.782 35.7205 54.0533C35.7476 53.8467 35.708 53.6431 35.6149 53.4638ZM30.3849 15.978L12.9487 26.1577C12.4558 26.4342 11.8576 26.2732 11.5751 25.7809C11.2985 25.2947 11.4639 24.6778 11.9418 24.3953L29.3779 14.2249C29.8588 13.9423 30.472 14.1064 30.7485 14.5926C31.028 15.0819 30.8628 15.6955 30.3849 15.978ZM33.8896 22.1192C34.3705 21.8366 34.5328 21.2136 34.2563 20.7336C33.9797 20.2474 33.3666 20.0742 32.8857 20.3568L15.4526 30.5365C14.9717 30.8191 14.8064 31.4359 15.0829 31.9221C15.3594 32.4083 15.9817 32.5693 16.4566 32.2898L33.8896 22.1192ZM37.7609 26.8687C37.4844 26.3886 36.8712 26.2184 36.3903 26.501L24.7698 33.2834C24.2889 33.5569 24.1266 34.1828 24.4031 34.669C24.6797 35.1552 25.3019 35.3163 25.7737 35.0367L37.3942 28.2543C37.8751 27.9808 38.0404 27.3549 37.7609 26.8687ZM51.9299 42.9006C52.0531 42.4387 51.993 41.9525 51.7556 41.5392L29.7026 2.92318C29.2157 2.06624 28.1336 1.77756 27.289 2.2729L6.66036 14.3094L7.91074 16.5003C8.95076 18.3236 8.33155 20.6604 6.52809 21.7178L4.36096 22.9849L12.5789 37.3731H22.1103C22.4138 37.3731 22.6994 37.5098 22.8917 37.7499L25.2452 40.6913H36.2825C38.2933 40.6913 39.9284 42.3413 39.9284 44.3712V50.5123L51.1096 43.9852C51.5154 43.7452 51.8066 43.3624 51.9299 42.9006ZM37.9202 63.5058V44.3708C37.9202 43.4653 37.1868 42.7208 36.2851 42.7208L24.7669 42.7178C24.4633 42.7178 24.1778 42.581 23.9854 42.341L21.6319 39.3995H2.00743V63.5053C2.00743 64.3106 2.65667 64.9609 3.45319 64.9609H36.4741C37.2707 64.9609 37.9202 64.311 37.9202 63.5058ZM2.52775 34.927H8.86385L10.2615 37.3732H2.00743V35.4496C2.00743 35.167 2.24521 34.927 2.52775 34.927ZM6.345 18.8703C6.22176 19.3413 5.93021 19.7272 5.52444 19.9581L4.58661 20.5051L5.62963 16.5699L6.17066 17.518C6.40511 17.9283 6.46523 18.4083 6.345 18.8703ZM53.4957 40.5303L31.4427 1.90568C30.3997 0.0824217 28.0883 -0.540448 26.2849 0.510893L4.78521 13.0609C4.55377 13.1976 4.38545 13.4194 4.31932 13.6777L2.01992 22.3529C1.95079 22.6082 1.98686 22.8847 2.12212 23.1217L7.70676 32.9H2.52786C1.1362 32.9 0 34.0456 0 35.4494V63.5085C0 65.4321 1.54794 67 3.4536 67H36.4745C38.3772 67 39.9281 65.4351 39.9281 63.5085V52.8551L52.1134 45.7385C53.9138 44.6931 54.5356 42.3535 53.4957 40.5303Z" fill="white"/>
</svg>
