<svg width="50" height="50" viewBox="0 0 50 50" fill="none" xmlns="http://www.w3.org/2000/svg">
<path d="M23.0904 15.7654C23.0904 16.5654 24.7358 17.6745 25.8721 18.1381C26.3449 18.329 30.3539 20.0471 30.3539 23.038C30.3539 25.3198 28.8085 27.2471 26.7176 27.847V28.4925C26.7176 29.247 26.1085 29.8561 25.3539 29.8561C24.5994 29.8561 23.9903 29.247 23.9903 28.4925V27.847C21.8994 27.2471 20.354 25.3289 20.354 23.038C20.354 22.2835 20.9631 21.6744 21.7176 21.6744C22.4722 21.6744 23.0813 22.2835 23.0813 23.038C23.0813 24.2925 24.0994 25.3107 25.3539 25.3107C26.6084 25.3107 27.6266 24.2925 27.6266 23.038C27.6266 22.2471 25.9812 21.129 24.8448 20.6654C24.3903 20.4836 20.354 18.7654 20.354 15.7654C20.354 13.4837 21.8994 11.5564 23.9903 10.9565V10.311C23.9903 9.55645 24.5994 8.94736 25.3539 8.94736C26.1085 8.94736 26.7176 9.55645 26.7176 10.311V10.9565C28.8085 11.5564 30.3539 13.4746 30.3539 15.7654C30.3539 16.52 29.7448 17.1291 28.9902 17.1291C28.2357 17.1291 27.6266 16.52 27.6266 15.7654C27.6266 14.5109 26.6084 13.4928 25.3539 13.4928C24.0994 13.4928 23.0904 14.5109 23.0904 15.7654ZM15.4088 31.629C16.1997 31.629 16.9724 31.7108 17.7269 31.829C13.6088 29.2018 10.9541 24.4383 10.9541 19.6204C10.9541 11.6752 17.4174 5.21131 25.3632 5.21131C33.3089 5.21131 39.7722 11.6746 39.7722 19.6204C39.7722 20.3749 40.3813 20.984 41.1359 20.984C41.8904 20.984 42.4995 20.3749 42.4995 19.6204C42.4995 10.1753 34.8179 2.48438 25.3635 2.48438C15.9091 2.48438 8.22754 10.166 8.22754 19.6116C8.22754 24.1116 10.173 28.5569 13.3638 31.7749C14.0183 31.684 14.7001 31.6294 15.4092 31.6294L15.4088 31.629ZM8.43641 34.4835C8.3455 34.1289 8.11823 33.838 7.80002 33.6562C7.48182 33.4744 7.1182 33.4289 6.76371 33.5198L5.00921 33.9926C4.65467 34.0835 4.36375 34.3107 4.18194 34.6289C4.00012 34.9471 3.95467 35.3108 4.04557 35.6653L7.08191 47.0105C7.27281 47.7378 8.02735 48.1741 8.75461 47.9741L10.5091 47.5014C11.2364 47.3105 11.6636 46.5559 11.4727 45.8287L8.43641 34.4835ZM44.736 27.82C44.536 27.6291 44.2632 27.5382 44.0178 27.5564C43.7542 27.5746 43.5087 27.6928 43.336 27.9019L35.4088 35.8197C34.6361 36.6378 31.7362 37.1015 30.618 37.1015H30.3816C30.3816 37.1469 30.3907 37.1924 30.3907 37.2469C30.3907 39.6741 28.6089 39.8287 28.3635 39.8287H22.5C22.2455 39.8287 22.0455 39.6287 22.0455 39.3741C22.0455 39.1196 22.2455 38.9196 22.5 38.9196H28.3635C28.8907 38.9196 29.4817 38.2287 29.4817 37.2469C29.4817 36.2651 28.8908 35.5742 28.3635 35.5742H20.7546C20.5364 35.5742 20.3273 35.5197 20.1273 35.4197C17.6456 34.1379 16.0547 34.4379 15.4092 34.3834C14.5274 34.3106 13.1729 34.3652 11.4366 35.1379C12.2729 38.2651 13.1184 41.4016 13.9547 44.5289C17.8273 45.0834 21.6997 45.647 25.5728 46.2015C25.9365 46.1925 26.291 46.1197 26.6364 45.9925L35.4089 42.2562C36.0453 42.0107 36.5544 41.6107 36.918 41.0925L44.7724 29.1928C45.0906 28.7292 45.0723 28.1382 44.736 27.82Z" fill="white"/>
</svg>
