<svg width="61" height="61" viewBox="0 0 61 61" fill="none" xmlns="http://www.w3.org/2000/svg">
<path d="M32.0983 57.4082C31.4403 57.6689 30.7743 57.9147 30.0923 58.1263C24.6666 56.4134 19.852 53.168 16.2286 48.7812L14.4934 49.8414C18.4566 54.7241 23.7899 58.3095 29.8074 60.1364C29.9952 60.1926 30.1953 60.1926 30.3831 60.1364C30.9799 59.9578 31.5566 59.7351 32.1364 59.5235C32.1165 59.4084 32.1038 59.2922 32.0983 59.1755V57.4082Z" fill="white"/>
<path d="M47.069 24.4251C47.0961 24.4713 47.1181 24.5254 47.1452 24.5676V13.2365C47.1454 12.9932 47.057 12.7581 46.8967 12.575C46.7363 12.3919 46.5149 12.2734 46.2736 12.2415C40.7695 11.5192 35.4466 9.78487 30.5734 7.12619C30.4262 7.04595 30.2612 7.00391 30.0935 7.00391C29.9258 7.00391 29.7608 7.04595 29.6136 7.12619C24.7407 9.78471 19.4181 11.519 13.9144 12.2415C13.6726 12.2728 13.4504 12.391 13.2895 12.5741C13.1285 12.7572 13.0397 12.9927 13.0398 13.2365V29.1353C13.0454 31.7855 13.4511 34.4197 14.2434 36.9487L16.0408 35.9698C15.3864 33.7504 15.0514 31.4491 15.0458 29.1353V14.1061C20.3058 13.3153 25.3932 11.6368 30.091 9.14224C34.7888 11.6368 39.8762 13.3153 45.1362 14.1061V21.4382C45.8152 22.398 46.4692 23.385 47.069 24.4251Z" fill="white"/>
<path d="M40.666 43.2454C38.0421 47.0451 34.3677 49.9977 30.0922 51.742C26.7701 50.3872 23.8022 48.2898 21.4162 45.6105L19.679 46.6717C22.4038 49.8174 25.8555 52.2503 29.7342 53.759C29.9664 53.8473 30.223 53.8473 30.4553 53.759C35.8743 51.6442 40.4238 47.7671 43.3711 42.752C42.6854 43.0937 41.9306 43.2739 41.1645 43.2785C40.9979 43.276 40.8315 43.2649 40.666 43.2454Z" fill="white"/>
<path d="M38.6007 36.7065C38.4492 36.9481 38.3324 37.2098 38.2536 37.4839C38.1514 37.8656 38.1254 38.2637 38.177 38.6555C38.2286 39.0473 38.3569 39.425 38.5546 39.7672C38.7522 40.1094 39.0153 40.4093 39.3289 40.6498C39.6424 40.8903 40.0003 41.0667 40.382 41.1689C40.638 41.2364 40.9017 41.2701 41.1664 41.2692C41.6945 41.2706 42.2136 41.1322 42.6709 40.868L49.6198 36.856C50.2011 36.5249 50.6549 36.0088 50.9089 35.3899C51.163 34.7711 51.2027 34.085 51.0217 33.441C50.8407 32.7969 50.4494 32.232 49.9102 31.836C49.3709 31.4401 48.7147 31.236 48.046 31.2562C46.581 27.2097 44.4152 23.4526 41.6478 20.1568C41.9948 19.5871 42.142 18.918 42.0661 18.2553C41.9902 17.5926 41.6955 16.9741 41.2286 16.4976C40.7617 16.0212 40.1493 15.714 39.4882 15.6247C38.8272 15.5353 38.1552 15.6689 37.5786 16.0044L30.6297 20.0164C30.0551 20.3472 29.6058 20.8585 29.3517 21.4708C29.0976 22.0832 29.0528 22.7624 29.2243 23.4028C29.3959 24.0432 29.7741 24.6091 30.3003 25.0124C30.8266 25.4158 31.4712 25.634 32.1342 25.6333C32.1553 25.6333 32.1754 25.6253 32.1964 25.6253C32.5676 26.6584 33.0069 27.7065 33.5004 28.7456L2.05592 45.8691C1.36063 46.2472 0.795456 46.8261 0.434148 47.5303C0.0728399 48.2345 -0.0678263 49.0313 0.0305034 49.8166C0.128833 50.6019 0.461593 51.3394 0.985364 51.9328C1.50914 52.5261 2.1996 52.9479 2.96666 53.1429C3.47562 53.2746 4.00596 53.3021 4.52581 53.2237C5.04566 53.1452 5.54429 52.9625 5.99174 52.6865L36.5455 34.0135C37.2015 34.9583 37.8905 35.864 38.6007 36.7065ZM48.1092 33.2482C48.3297 33.2485 48.5439 33.3216 48.7187 33.4559C48.8935 33.5903 49.0192 33.7785 49.0762 33.9914C49.1333 34.2044 49.1187 34.4302 49.0345 34.634C48.9504 34.8378 48.8014 35.0081 48.6107 35.1188L41.6619 39.1308C41.4312 39.2633 41.1576 39.2993 40.9006 39.2311C40.709 39.1798 40.5369 39.0727 40.4061 38.9236C40.2753 38.7744 40.1917 38.5898 40.1658 38.3931C40.1399 38.1964 40.173 37.9965 40.2607 37.8186C40.3485 37.6407 40.487 37.4928 40.6589 37.3936L47.6077 33.3816C47.7601 33.2932 47.9331 33.2465 48.1092 33.2462V33.2482ZM43.5957 26.4327C44.6104 28.1761 45.4677 30.0065 46.1574 31.9021L40.0992 35.4026C38.8048 33.8553 37.6499 32.1966 36.6478 30.4457C35.633 28.701 34.7763 26.8688 34.0881 24.9713L40.1433 21.4748C41.4363 23.0232 42.5918 24.6815 43.5967 26.4307L43.5957 26.4327ZM31.2656 23.1268C31.1326 22.8964 31.0966 22.6226 31.1654 22.3657C31.2343 22.1087 31.4024 21.8897 31.6327 21.7566L38.5806 17.7446C38.6947 17.6786 38.8207 17.6357 38.9514 17.6184C39.0821 17.6012 39.2149 17.6098 39.3423 17.6439C39.4696 17.678 39.589 17.7369 39.6936 17.8171C39.7981 17.8974 39.8859 17.9975 39.9517 18.1117C40.0847 18.3421 40.1208 18.6158 40.0519 18.8728C39.9831 19.1297 39.815 19.3488 39.5846 19.4818L32.6368 23.4939C32.5226 23.5599 32.3966 23.6027 32.266 23.62C32.1353 23.6373 32.0024 23.6286 31.8751 23.5945C31.7478 23.5604 31.6284 23.5016 31.5238 23.4213C31.4192 23.3411 31.3315 23.241 31.2656 23.1268ZM4.9456 50.9744C4.72561 51.1104 4.48053 51.2009 4.22491 51.2405C3.96929 51.2801 3.70833 51.2679 3.4575 51.2047C3.20667 51.1415 2.97109 51.0285 2.76473 50.8726C2.55837 50.7166 2.38543 50.5208 2.25618 50.2968C2.12692 50.0727 2.04397 49.825 2.01226 49.5683C1.98054 49.3116 2.0007 49.0511 2.07155 48.8023C2.1424 48.5535 2.26248 48.3215 2.42468 48.12C2.58689 47.9185 2.7879 47.7517 3.0158 47.6293L34.4101 30.535C34.5746 30.8359 34.7361 31.1468 34.9116 31.4457C35.0871 31.7446 35.2697 32.0375 35.4512 32.3324L4.9456 50.9744Z" fill="white"/>
<path d="M10.6609 38.8996C9.58596 35.7561 9.03465 32.4575 9.02897 29.1353V8.60162C16.5023 8.41721 23.7842 6.20006 30.0922 2.18835C36.4002 6.20019 43.6821 8.41737 51.1555 8.60162V29.1353C51.1555 29.5124 51.1404 29.8865 51.1264 30.2617C51.6628 30.6592 52.1129 31.1615 52.4494 31.7381C52.6601 32.1169 52.8206 32.5215 52.9268 32.9417C53.08 31.6786 53.1584 30.4076 53.1615 29.1353V7.61064C53.1615 7.34462 53.0558 7.0895 52.8677 6.9014C52.6796 6.7133 52.4245 6.60763 52.1585 6.60763C44.6997 6.60503 37.3969 4.4711 31.1103 0.457155L30.6329 0.156251C30.4721 0.0541952 30.2856 0 30.0952 0C29.9048 0 29.7184 0.0541952 29.5576 0.156251L29.0782 0.457155C22.7905 4.47215 15.4862 6.60613 8.02596 6.60763C7.75995 6.60763 7.50483 6.7133 7.31672 6.9014C7.12862 7.0895 7.02295 7.34462 7.02295 7.61064V29.1353C7.02946 32.7919 7.65691 36.4209 8.87852 39.8675L10.6609 38.8996Z" fill="white"/>
<path d="M50.6162 38.5925L49.4125 39.2946C48.2777 42.4924 46.6237 45.4813 44.5168 48.1412H47.0003C49.3587 44.8623 51.0928 41.1769 52.1157 37.2695C51.7106 37.8075 51.2004 38.2576 50.6162 38.5925Z" fill="white"/>
<path d="M57.1725 54.1585H56.1695V53.1555C56.1695 52.3575 55.8525 51.5921 55.2882 51.0278C54.7239 50.4635 53.9585 50.1465 53.1605 50.1465H41.1244C40.3263 50.1465 39.561 50.4635 38.9966 51.0278C38.4323 51.5921 38.1153 52.3575 38.1153 53.1555V54.1585H37.1123C36.3143 54.1585 35.5489 54.4756 34.9846 55.0399C34.4203 55.6042 34.1033 56.3695 34.1033 57.1676V59.1736C34.1033 59.4396 34.2089 59.6947 34.397 59.8828C34.5851 60.0709 34.8403 60.1766 35.1063 60.1766H59.1786C59.4446 60.1766 59.6997 60.0709 59.8878 59.8828C60.0759 59.6947 60.1816 59.4396 60.1816 59.1736V57.1676C60.1816 56.3695 59.8646 55.6042 59.3003 55.0399C58.736 54.4756 57.9706 54.1585 57.1725 54.1585ZM40.1213 53.1555C40.1213 52.8895 40.227 52.6344 40.4151 52.4463C40.6032 52.2582 40.8583 52.1525 41.1244 52.1525H53.1605C53.4265 52.1525 53.6816 52.2582 53.8697 52.4463C54.0578 52.6344 54.1635 52.8895 54.1635 53.1555V54.1585H40.1213V53.1555ZM58.1756 58.1706H36.1093V57.1676C36.1093 56.9016 36.215 56.6464 36.4031 56.4583C36.5912 56.2702 36.8463 56.1646 37.1123 56.1646H57.1725C57.4386 56.1646 57.6937 56.2702 57.8818 56.4583C58.0699 56.6464 58.1756 56.9016 58.1756 57.1676V58.1706Z" fill="white"/>
</svg>
