<svg width="50" height="50" viewBox="0 0 50 50" fill="none" xmlns="http://www.w3.org/2000/svg">
<path d="M20.4732 19.9479C20.4732 14.7272 28.5501 14.3431 28.7251 19.9046C28.7197 22.1714 26.8875 24.0089 24.6208 24.0216C22.354 24.0324 20.5021 22.2146 20.4732 19.9479ZM27.571 26.3098C25.6901 27.2042 23.5081 27.2042 21.6273 26.3098C19.3461 26.9662 17.3517 28.3673 15.9579 30.2879C14.5639 32.2084 13.8534 34.5418 13.9382 36.9134C16.9245 39.2937 23.171 43.5786 24.5994 44.6893C26.0708 43.564 32.2599 39.2936 35.2458 36.9134C35.3449 34.5403 34.6417 32.2032 33.2477 30.2791C31.8556 28.3568 29.8558 26.9572 27.571 26.3098ZM42.0259 19.8182L40.641 9.76315C40.5057 8.86152 40.017 8.05184 39.2849 7.51084C38.551 6.96804 37.6331 6.74082 36.7315 6.87788C33.0762 7.42248 29.3433 6.80756 26.056 5.11787C25.1471 4.62738 24.0507 4.62738 23.1419 5.11787C19.8545 6.80758 16.1217 7.42248 12.4664 6.87788C11.5647 6.74083 10.6469 6.96805 9.91294 7.51084C9.18082 8.05184 8.69213 8.86152 8.55686 9.76315L7.17194 19.8182C6.46867 24.983 7.94196 30.2088 11.2402 34.2445C12.0192 29.8283 14.9225 26.079 19.0013 24.2181C17.9464 22.826 17.4505 21.0894 17.6092 19.351C17.7661 17.6108 18.5685 15.9933 19.8579 14.8157C21.1472 13.6364 22.8297 12.9818 24.5772 12.98C26.3248 12.9782 28.0089 13.6273 29.2999 14.8031C30.5928 15.9788 31.3989 17.5928 31.5612 19.333C31.7253 21.0713 31.233 22.8079 30.1816 24.2037C34.2643 26.0647 37.1714 29.8118 37.9576 34.2302C41.2612 30.2016 42.7348 24.9794 42.0259 19.8182Z" fill="white"/>
</svg>
