<svg width="54" height="62" viewBox="0 0 54 62" fill="none" xmlns="http://www.w3.org/2000/svg">
<path fill-rule="evenodd" clip-rule="evenodd" d="M9.74941 6.02166C10.2985 6.49979 10.7723 7.11572 11.1514 7.83853C11.5304 7.11852 12.0043 6.49975 12.5533 6.02166C12.0043 5.54634 11.5304 4.9276 11.1514 4.20479C10.7723 4.9276 10.2985 5.54357 9.74941 6.02166ZM6.98443 6.02166C6.98443 5.61384 7.24643 5.25384 7.62829 5.13007C8.95783 4.69413 9.99746 2.97004 10.2232 0.840972C10.2734 0.362842 10.6748 0 11.1486 0C11.6252 0 12.0239 0.36282 12.074 0.840972C12.2998 2.97004 13.3422 4.69418 14.669 5.13007C15.5246 5.40851 15.5246 6.63763 14.669 6.91606C13.3394 7.352 12.297 9.07328 12.074 11.2052C12.0238 11.6805 11.6253 12.0461 11.1486 12.0461C10.672 12.0461 10.2734 11.6833 10.2232 11.2052C10.0002 9.07609 8.95505 7.35195 7.62829 6.91606C7.24643 6.78949 6.98443 6.42949 6.98443 6.02166ZM6.99279 28.5839C7.93766 29.3179 8.72649 30.3699 9.29789 31.6383C9.86928 30.3671 10.658 29.3151 11.603 28.5839C10.6581 27.8527 9.8693 26.8007 9.29789 25.5295C8.7265 26.8007 7.93774 27.8527 6.99279 28.5839ZM4.11636 28.5839C4.11636 28.1761 4.37557 27.8161 4.76022 27.6895C6.61379 27.082 8.06592 24.7195 8.37253 21.8056C8.48959 20.6947 10.1062 20.6947 10.2233 21.8056C10.5299 24.7195 11.9821 27.0848 13.8356 27.6895C14.6913 27.9679 14.6885 29.1999 13.8356 29.4783C11.9821 30.083 10.5299 32.4483 10.2233 35.3621C10.1731 35.8403 9.77456 36.2031 9.29792 36.2031C8.82129 36.2031 8.42269 35.8403 8.37253 35.3621C8.06592 32.4483 6.61379 30.083 4.76022 29.4783C4.37557 29.3517 4.11636 28.9917 4.11636 28.5839ZM45.2985 11.7198C46.0566 12.3386 46.7004 13.1852 47.1827 14.1949C47.6676 13.1852 48.3087 12.3386 49.0668 11.7198C48.3087 11.1039 47.6649 10.2573 47.1827 9.24759C46.7005 10.2573 46.0566 11.1039 45.2985 11.7198ZM42.4722 11.7198C42.4722 11.312 42.7314 10.952 43.1161 10.8282C44.7271 10.3023 45.9897 8.23223 46.2601 5.6785C46.3102 5.20318 46.7088 4.83753 47.1855 4.83753C47.6621 4.83753 48.0607 5.20035 48.1109 5.6785C48.3812 8.23231 49.6438 10.2995 51.2549 10.8282C52.1133 11.1095 52.1106 12.3358 51.2549 12.6142C49.6438 13.1402 48.3812 15.2102 48.1109 17.7611C47.9938 18.8693 46.3772 18.8721 46.2601 17.7611C45.9897 15.2073 44.7271 13.1373 43.1161 12.6142C42.7314 12.4877 42.4722 12.1276 42.4722 11.7198ZM51.8039 42.6241L51.6924 42.4891C51.2297 41.921 50.4604 41.7775 49.8277 42.1375C44.872 44.9585 38.9462 48.3532 35.2165 49.6105C34.2215 49.9452 33.1706 50.1674 32.0808 50.2715C31.3088 51.7368 29.6113 52.4287 27.9696 52.0799C26.3112 51.7283 23.9894 51.1124 22.5066 50.9717C21.9352 50.9183 21.361 50.9352 20.7479 51.0252C20.2378 51.0983 19.7667 50.7411 19.6942 50.2292C19.6218 49.7173 19.973 49.2392 20.4831 49.166C21.244 49.0563 21.9631 49.0367 22.6822 49.1042C24.3156 49.2617 26.5956 49.8692 28.3515 50.2432C29.224 50.4288 30.2608 50.097 30.5534 49.1126C30.8238 48.2041 30.3137 47.2394 29.4134 46.9666L20.7838 44.3397C18.6181 43.6816 16.968 44.5169 15.0588 45.4844C14.0136 46.0131 12.9293 46.5616 11.6862 46.9047C10.0556 47.3519 8.44453 47.7148 6.82236 48.1057L6.81957 58.2701C11.3433 58.2476 15.5769 58.1295 20.0537 58.782C22.8242 59.187 25.7285 60.2304 28.3907 60.0111C31.6183 59.7467 35.0857 57.7329 38.3525 55.5954C42.7536 52.7181 48.1216 48.0547 51.6814 44.6548C52.2417 44.1204 52.2973 43.2259 51.8039 42.6241ZM4.95841 47.0398C4.95841 46.7445 4.71034 46.4941 4.41768 46.4941H2.40527C2.11261 46.4941 1.86454 46.7445 1.86454 47.0398V59.578C1.86454 59.8761 2.11262 60.1237 2.40527 60.1237H4.41768C4.71035 60.1237 4.95841 59.8733 4.95841 59.578V47.0398ZM16.0576 42.9279C17.6017 42.2838 19.2769 41.9154 21.3199 42.5369L29.9495 45.1638C31.3989 45.6054 32.3661 46.8963 32.4776 48.3335C33.2218 48.2294 33.941 48.0579 34.6266 47.8273C37.1714 46.9694 40.8255 45.0456 44.5106 42.9897C45.8067 38.6836 45.0597 33.762 42.5261 30.0575C41.1659 28.0663 39.9172 26.435 38.8162 24.9978C36.9125 22.5116 35.438 20.5849 34.705 18.4868L25.8664 18.484C25.1249 20.5652 23.656 22.4946 21.7607 24.9865C20.6653 26.4265 19.4222 28.0606 18.0592 30.0547C15.5144 33.7814 14.781 38.6244 16.0576 42.9279ZM34.2693 14.1642H26.3312C26.4315 15.0276 26.4287 15.832 26.3256 16.6054H34.2609C34.1661 15.8461 34.1662 15.0417 34.2693 14.1642ZM25.9687 12.2854H34.6318C34.9663 10.9888 35.4958 9.54035 36.2484 7.87252H24.3387C25.0968 9.54316 25.6342 10.986 25.9687 12.2854ZM52.9606 46.0193C51.2046 47.6984 45.0367 53.4613 39.364 57.1708C35.643 59.6065 31.6406 61.9184 27.6241 61.9184C24.8982 61.9184 22.4035 61.0212 19.7865 60.6387C15.6279 60.0341 11.0706 60.0931 6.74797 60.1466C6.49433 61.2097 5.54387 62 4.41505 62H2.40264C1.07866 62 0 60.9116 0 59.5756V47.0402C0 45.7042 1.07866 44.6158 2.40264 44.6158H4.41505C5.44911 44.6158 6.32713 45.2767 6.66713 46.202C8.20011 45.8336 9.70247 45.4933 11.1937 45.0855C12.4452 44.7423 13.2535 44.2586 14.3573 43.7326C12.8103 38.8276 13.613 33.2529 16.5286 28.989C17.9194 26.9583 19.1765 25.3045 20.2858 23.8449C24.8681 17.8204 26.2506 16.0032 22.0306 7.34944C21.7268 6.72787 22.1784 5.99661 22.8668 5.99661H37.7257C38.4141 5.99661 38.8657 6.72785 38.5619 7.34944C34.3196 16.0486 35.8248 18.0121 40.2928 23.8506C41.4077 25.3075 42.6731 26.9613 44.0611 28.9919C46.5641 32.6538 47.5174 37.3707 46.723 41.7498L48.9166 40.5038C50.3297 39.7022 52.1024 40.0341 53.1338 41.297L53.2452 41.432C54.3518 42.7904 54.2288 44.8071 52.9606 46.0193ZM32.9257 37.9897C32.9034 37.7704 32.7919 37.3344 31.9167 36.9351C30.7572 36.4316 29.4722 36.8198 27.995 36.1616C26.292 35.4022 25.8181 34.1422 25.8516 33.3238C25.8962 32.466 26.3031 31.2931 27.995 30.5844C28.4187 30.3987 28.8758 30.2694 29.3664 30.1962V28.295C29.3664 27.7775 29.7844 27.3556 30.2973 27.3556C30.8102 27.3556 31.2283 27.7747 31.2283 28.295V30.1794C32.3348 30.2947 33.3299 30.5647 34.2441 31.0006C34.7096 31.2228 34.9075 31.7825 34.6873 32.2522C34.4671 32.7219 33.9125 32.9216 33.4442 32.6994C32.5383 32.2635 31.5126 32.0357 30.3141 31.9991C29.3469 31.9907 27.7164 32.4604 27.7164 33.3773C27.7275 33.5601 27.8055 33.996 28.7337 34.4348C29.8375 34.9242 31.2618 34.5614 32.6666 35.2139C34.3305 35.9648 34.7403 37.1095 34.7905 37.9364C34.7933 37.9786 34.7933 38.0207 34.7905 38.0629C34.6874 39.7167 33.2407 40.8839 31.2256 41.1764V43.072C31.2256 43.5896 30.8075 44.0114 30.2946 44.0114C29.7817 44.0114 29.3636 43.5896 29.3636 43.072V41.2017C28.2571 41.0836 27.1951 40.7601 26.3422 40.372C25.8739 40.1583 25.6677 39.6014 25.8795 39.1288C26.0914 38.6563 26.6432 38.4482 27.1115 38.662C28.4912 39.2948 30.5148 39.6604 31.9168 39.0557C32.7195 38.7041 32.8867 38.3076 32.9257 37.9897Z" fill="white"/>
</svg>
