<svg width="254" height="38" viewBox="0 0 254 38" fill="none" xmlns="http://www.w3.org/2000/svg">
<path d="M31.537 29.8291L25.8268 24.1202L24.1018 22.3956C23.6498 23.0735 23.0669 23.6563 22.4007 24.0964C21.4252 24.7505 20.2593 25.1311 18.9983 25.1311C18.6652 25.1311 18.3322 25.1074 18.011 25.0479C17.8682 25.0241 17.7373 25.0003 17.5946 24.9646C16.1194 24.6197 14.8584 23.7396 14.0019 22.5502C13.2881 21.5512 12.8718 20.3261 12.8718 18.9941C12.8718 17.662 13.2881 16.4488 14.0019 15.4379C14.109 15.2833 14.216 15.1405 14.335 15.0097C15.1677 14.0344 16.2979 13.3327 17.5827 13.0235C17.8682 12.9521 18.1775 12.9045 18.4749 12.8807C18.6415 12.857 18.808 12.857 18.9864 12.857C20.2475 12.857 21.4133 13.2376 22.3888 13.8917C23.0669 14.3437 23.6498 14.9264 24.0899 15.5925L25.8149 13.8679L33.2382 6.44632C32.7028 5.83975 32.1318 5.26885 31.537 4.74554C28.1942 1.79593 23.7925 0 18.9864 0C11.5156 0 5.04402 4.32926 1.93909 10.6091H4.68713C7.56603 5.70892 12.8956 2.4144 18.9864 2.4144C23.1263 2.4144 26.9213 3.93678 29.8239 6.45822L24.1137 12.1671C22.6862 11.0848 20.9017 10.4545 18.9864 10.4545C18.4154 10.4545 17.8563 10.5139 17.321 10.621C15.596 10.9659 14.0614 11.8222 12.8718 13.0354H3.5213H0.951705C0.689987 13.8203 0.475854 14.6291 0.333099 15.4498C0.10707 16.6034 0 17.7928 0 18.9941C0 20.1953 0.118966 21.3966 0.333099 22.5502C0.48775 23.3709 0.689987 24.1797 0.951705 24.9646H12.8837C14.0614 26.1778 15.6079 27.0341 17.3329 27.379C17.8682 27.4861 18.4273 27.5455 18.9983 27.5455C20.9255 27.5455 22.6981 26.9033 24.1256 25.8329L29.8358 31.5418C26.9331 34.0632 23.1382 35.5856 18.9983 35.5856C12.9075 35.5856 7.57792 32.2911 4.69903 27.3909H1.95099C5.05592 33.6707 11.5275 38 18.9983 38C23.8044 38 28.2061 36.2041 31.5489 33.2545C32.1556 32.7192 32.7266 32.1484 33.2501 31.5537L31.537 29.841V29.8291ZM2.78373 22.5502C2.53391 21.4085 2.40305 20.2191 2.40305 18.9941C2.40305 17.769 2.53391 16.5915 2.78373 15.4498H11.2063C10.7066 16.5321 10.433 17.7333 10.433 18.9941C10.433 20.2548 10.7066 21.4679 11.2063 22.5502H2.77183H2.78373Z" fill="#2779A7"/>
<path d="M51.1829 27.5992C49.9883 27.5992 48.8615 27.3775 47.8024 26.9342C46.7557 26.4785 45.8321 25.8566 45.0316 25.0685C44.2435 24.2803 43.6216 23.3629 43.1659 22.3161C42.7226 21.2694 42.5009 20.1487 42.5009 18.9542C42.5009 17.7596 42.7226 16.639 43.1659 15.5922C43.6216 14.5455 44.2435 13.628 45.0316 12.8399C45.8321 12.0517 46.7557 11.436 47.8024 10.9926C48.8615 10.537 49.9883 10.3092 51.1829 10.3092C52.3651 10.3092 53.4734 10.5308 54.5079 10.9742C55.5423 11.4052 56.4536 12.0025 57.2417 12.766L56.6322 15.3151C56.0657 14.4038 55.3022 13.6773 54.3416 13.1354C53.3934 12.5812 52.3404 12.3042 51.1829 12.3042C49.9637 12.3042 48.8615 12.6059 47.8763 13.2093C46.9035 13.8004 46.1276 14.6009 45.5488 15.6107C44.97 16.6082 44.6806 17.7227 44.6806 18.9542C44.6806 20.1733 44.97 21.2878 45.5488 22.2976C46.1276 23.3075 46.9035 24.1141 47.8763 24.7175C48.8615 25.3086 49.9637 25.6042 51.1829 25.6042C52.3528 25.6042 53.4118 25.3271 54.3601 24.7729C55.3083 24.2187 56.0657 23.4922 56.6322 22.5932L57.2417 25.1424C56.4536 25.8936 55.5423 26.4908 54.5079 26.9342C53.4734 27.3775 52.3651 27.5992 51.1829 27.5992ZM60.3451 27.2667V10.6417H62.4509V25.3825H68.2142V27.2667H60.3451ZM69.4421 27.2667L76.48 10.0875H76.5169L83.5548 27.2667H81.3197L79.3617 22.3346H73.5429L71.5664 27.2667H69.4421ZM74.2448 20.5797H78.6597L77.3482 17.2917C77.1881 16.873 77.0342 16.4604 76.8864 16.054C76.7386 15.6476 76.5908 15.1612 76.443 14.5947C76.2953 15.1612 76.1536 15.6476 76.0182 16.054C75.8827 16.4481 75.7288 16.8606 75.5564 17.2917L74.2448 20.5797ZM86.4394 27.2667V10.6417H88.5452V27.2667H86.4394ZM93.4132 27.2667V10.0875L101.135 20.7275L108.708 10.0875V27.2667H106.602V19.5822C106.602 19.0773 106.609 18.5293 106.621 17.9382C106.633 17.3348 106.676 16.6513 106.75 15.8878C106.368 16.5651 105.993 17.1624 105.623 17.6796C105.266 18.1845 104.94 18.6525 104.644 19.0835L101.061 24.1633L97.3663 19.0835C97.0584 18.6525 96.7259 18.1845 96.3688 17.6796C96.024 17.1624 95.6545 16.5651 95.2605 15.8878C95.3344 16.6513 95.3775 17.3348 95.3898 17.9382C95.4021 18.5293 95.4082 19.0773 95.4082 19.5822V27.2667H93.4132ZM125.214 27.2667L132.252 10.0875H132.289L139.327 27.2667H137.091L135.133 22.3346H129.315L127.338 27.2667H125.214ZM130.017 20.5797H134.431L133.12 17.2917C132.96 16.873 132.806 16.4604 132.658 16.054C132.51 15.6476 132.362 15.1612 132.215 14.5947C132.067 15.1612 131.925 15.6476 131.79 16.054C131.654 16.4481 131.5 16.8606 131.328 17.2917L130.017 20.5797ZM149.452 27.5992C148.258 27.5992 147.131 27.3775 146.072 26.9342C145.025 26.4785 144.101 25.8566 143.301 25.0685C142.513 24.2803 141.891 23.3629 141.435 22.3161C140.992 21.2694 140.77 20.1487 140.77 18.9542C140.77 17.7596 140.992 16.639 141.435 15.5922C141.891 14.5455 142.513 13.628 143.301 12.8399C144.101 12.0517 145.025 11.436 146.072 10.9926C147.131 10.537 148.258 10.3092 149.452 10.3092C150.634 10.3092 151.743 10.5308 152.777 10.9742C153.812 11.4052 154.723 12.0025 155.511 12.766L154.902 15.3151C154.335 14.4038 153.572 13.6773 152.611 13.1354C151.663 12.5812 150.61 12.3042 149.452 12.3042C148.233 12.3042 147.131 12.6059 146.146 13.2093C145.173 13.8004 144.397 14.6009 143.818 15.6107C143.239 16.6082 142.95 17.7227 142.95 18.9542C142.95 20.1733 143.239 21.2878 143.818 22.2976C144.397 23.3075 145.173 24.1141 146.146 24.7175C147.131 25.3086 148.233 25.6042 149.452 25.6042C150.622 25.6042 151.681 25.3271 152.629 24.7729C153.578 24.2187 154.335 23.4922 154.902 22.5932L155.511 25.1424C154.723 25.8936 153.812 26.4908 152.777 26.9342C151.743 27.3775 150.634 27.5992 149.452 27.5992ZM166.077 27.5992C164.883 27.5992 163.756 27.3775 162.697 26.9342C161.65 26.4785 160.726 25.8566 159.926 25.0685C159.138 24.2803 158.516 23.3629 158.06 22.3161C157.617 21.2694 157.395 20.1487 157.395 18.9542C157.395 17.7596 157.617 16.639 158.06 15.5922C158.516 14.5455 159.138 13.628 159.926 12.8399C160.726 12.0517 161.65 11.436 162.697 10.9926C163.756 10.537 164.883 10.3092 166.077 10.3092C167.259 10.3092 168.368 10.5308 169.402 10.9742C170.437 11.4052 171.348 12.0025 172.136 12.766L171.527 15.3151C170.96 14.4038 170.197 13.6773 169.236 13.1354C168.288 12.5812 167.235 12.3042 166.077 12.3042C164.858 12.3042 163.756 12.6059 162.771 13.2093C161.798 13.8004 161.022 14.6009 160.443 15.6107C159.864 16.6082 159.575 17.7227 159.575 18.9542C159.575 20.1733 159.864 21.2878 160.443 22.2976C161.022 23.3075 161.798 24.1141 162.771 24.7175C163.756 25.3086 164.858 25.6042 166.077 25.6042C167.247 25.6042 168.306 25.3271 169.254 24.7729C170.203 24.2187 170.96 23.4922 171.527 22.5932L172.136 25.1424C171.348 25.8936 170.437 26.4908 169.402 26.9342C168.368 27.3775 167.259 27.5992 166.077 27.5992ZM175.461 27.2667V10.6417H177.567V27.2667H175.461ZM182.435 27.2667V10.6417H187.884C189.387 10.6417 190.692 10.888 191.8 11.3806C192.921 11.8731 193.845 12.5258 194.571 13.3386C195.298 14.1514 195.84 15.0504 196.197 16.0356C196.554 17.0084 196.732 17.9813 196.732 18.9542C196.732 19.927 196.554 20.9061 196.197 21.8912C195.84 22.8641 195.298 23.7569 194.571 24.5697C193.845 25.3825 192.921 26.0352 191.8 26.5278C190.692 27.0204 189.387 27.2667 187.884 27.2667H182.435ZM184.541 25.3825H187.663C188.943 25.3825 190.021 25.1855 190.895 24.7914C191.77 24.385 192.478 23.8616 193.02 23.2212C193.561 22.5686 193.949 21.8666 194.183 21.1154C194.43 20.3642 194.553 19.6438 194.553 18.9542C194.553 18.2645 194.43 17.5441 194.183 16.7929C193.949 16.0417 193.561 15.3459 193.02 14.7056C192.478 14.0529 191.77 13.5295 190.895 13.1354C190.021 12.729 188.943 12.5258 187.663 12.5258H184.541V25.3825ZM200.177 27.2667V10.6417H208.379V12.5258H202.283V16.0725H207.086V17.9567H202.283V25.3825H208.379V27.2667H200.177ZM225.447 27.8208L213.809 15.3521V27.2667H211.814V10.0875L223.452 22.5562V10.6417H225.447V27.8208ZM228.661 12.5258V10.6417H239.634V12.5258H235.2V27.2667H233.094V12.5258H228.661ZM246.44 27.4883C245.455 27.4883 244.562 27.2913 243.762 26.8972C242.973 26.5031 242.345 26.0229 241.877 25.4564L242.487 22.9072C242.832 23.5969 243.349 24.2187 244.039 24.7729C244.728 25.3271 245.553 25.6042 246.514 25.6042C247.388 25.6042 248.109 25.3271 248.675 24.7729C249.254 24.2187 249.543 23.5353 249.543 22.7225C249.543 22.1314 249.402 21.645 249.118 21.2632C248.835 20.8814 248.515 20.5797 248.158 20.3581C247.801 20.1364 247.518 19.9763 247.308 19.8778L245.276 18.8433C244.956 18.6709 244.556 18.4308 244.076 18.1229C243.608 17.815 243.195 17.3902 242.838 16.8483C242.481 16.3065 242.302 15.6045 242.302 14.7425C242.302 13.9051 242.493 13.16 242.875 12.5074C243.269 11.8547 243.811 11.3436 244.5 10.9742C245.202 10.6047 246.003 10.42 246.902 10.42C247.788 10.42 248.57 10.5801 249.248 10.9003C249.925 11.2081 250.455 11.5283 250.836 11.8608L250.227 14.41C249.919 13.8928 249.463 13.4063 248.86 12.9507C248.256 12.495 247.573 12.2672 246.809 12.2672C246.071 12.2672 245.479 12.4889 245.036 12.9322C244.593 13.3632 244.371 13.8989 244.371 14.5393C244.371 15.0319 244.482 15.4383 244.704 15.7585C244.938 16.0787 245.196 16.3311 245.479 16.5158C245.775 16.7006 246.015 16.8422 246.2 16.9407L248.269 17.9751C248.515 18.0983 248.823 18.2707 249.192 18.4924C249.574 18.714 249.95 19.0096 250.319 19.379C250.689 19.7362 250.997 20.1795 251.243 20.709C251.489 21.2262 251.612 21.8543 251.612 22.5932C251.612 23.5414 251.384 24.385 250.929 25.1239C250.485 25.8628 249.876 26.4416 249.1 26.8603C248.324 27.279 247.438 27.4883 246.44 27.4883Z" fill="#2779A7"/>
<path d="M119.459 27.2667V22.7964H111.479L117.704 10.6417H119.921L114.527 21.0231H119.514V17.2917L121.399 16.2942V21.0231H123.892V22.7964H121.454V27.2667H119.459Z" fill="#D14836"/>
</svg>
