<svg width="38" height="28" viewBox="0 0 38 28" fill="none" xmlns="http://www.w3.org/2000/svg">
<path d="M37.1016 11.1064L26.6081 7.21624L22.2219 1.53564C21.8405 1.05466 21.36 0.6673 20.8154 0.401683C20.2708 0.136065 19.6757 -0.00114655 19.0733 7.21624e-06H8.22157C7.55793 1.8993e-05 6.90435 0.167361 6.31774 0.487463C5.73113 0.807565 5.22927 1.27072 4.85586 1.83661L1.17529 7.41222C0.409627 8.57306 0.000130695 9.94458 0 11.3486V22.3976C0 22.7689 0.142984 23.1249 0.397498 23.3875C0.652012 23.65 0.997206 23.7975 1.35714 23.7975H4.26414C4.55937 24.9989 5.23454 26.0644 6.18284 26.8256C7.13114 27.5867 8.29842 28 9.5 28C10.7016 28 11.8689 27.5867 12.8172 26.8256C13.7655 26.0644 14.4406 24.9989 14.7359 23.7975H23.2641C23.5594 24.9989 24.2345 26.0644 25.1828 26.8256C26.1311 27.5867 27.2984 28 28.5 28C29.7016 28 30.8689 27.5867 31.8172 26.8256C32.7655 26.0644 33.4406 24.9989 33.7359 23.7975H36.6429C37.0028 23.7975 37.348 23.65 37.6025 23.3875C37.857 23.1249 38 22.7689 38 22.3976V12.4237C38 12.1354 37.9136 11.8542 37.7528 11.6184C37.592 11.3827 37.3646 11.2039 37.1016 11.1064ZM9.5 25.1973C8.96316 25.1973 8.43839 25.0331 7.99202 24.7255C7.54566 24.4179 7.19776 23.9806 6.99233 23.469C6.78689 22.9574 6.73314 22.3945 6.83787 21.8514C6.9426 21.3083 7.20111 20.8095 7.58071 20.4179C7.96031 20.0264 8.44395 19.7597 8.97047 19.6517C9.49699 19.5437 10.0427 19.5991 10.5387 19.811C11.0347 20.0229 11.4586 20.3818 11.7568 20.8422C12.0551 21.3026 12.2143 21.8439 12.2143 22.3976C12.2132 23.1398 11.9269 23.8513 11.4181 24.3761C10.9093 24.9009 10.2195 25.1962 9.5 25.1973ZM28.5 25.1973C27.9632 25.1973 27.4384 25.0331 26.992 24.7255C26.5457 24.4179 26.1978 23.9806 25.9923 23.469C25.7869 22.9574 25.7331 22.3945 25.8379 21.8514C25.9426 21.3083 26.2011 20.8095 26.5807 20.4179C26.9603 20.0264 27.4439 19.7597 27.9705 19.6517C28.497 19.5437 29.0427 19.5991 29.5387 19.811C30.0347 20.0229 30.4586 20.3818 30.7568 20.8422C31.0551 21.3026 31.2143 21.8439 31.2143 22.3976C31.2132 23.1398 30.9269 23.8513 30.4181 24.3761C29.9093 24.9009 29.2195 25.1962 28.5 25.1973ZM35.2857 20.9978H33.7359C33.4406 19.7964 32.7655 18.7308 31.8172 17.9696C30.8689 17.2085 29.7016 16.7952 28.5 16.7952C27.2984 16.7952 26.1311 17.2085 25.1828 17.9696C24.2345 18.7308 23.5594 19.7964 23.2641 20.9978H14.7359C14.4406 19.7964 13.7655 18.7308 12.8172 17.9696C11.8689 17.2085 10.7016 16.7952 9.5 16.7952C8.29842 16.7952 7.13114 17.2085 6.18284 17.9696C5.23454 18.7308 4.55937 19.7964 4.26414 20.9978H2.71429V11.3486C2.71431 10.5057 2.9602 9.6824 3.42 8.98565L7.09921 3.41284C7.22362 3.22398 7.39094 3.06937 7.58657 2.9625C7.7822 2.85563 8.0002 2.79974 8.22157 2.79971H19.0733C19.2708 2.79975 19.4658 2.84423 19.6449 2.93006C19.824 3.01589 19.9828 3.141 20.1101 3.29666L24.7244 9.27122C24.8814 9.4744 25.09 9.62853 25.327 9.71637L35.2857 13.4078V20.9978Z" fill="black"/>
</svg>
