<svg width="465" height="60" viewBox="0 0 465 60" fill="none" xmlns="http://www.w3.org/2000/svg">
<path d="M29.9786 1.75C37.124 1.75 43.6666 4.41828 48.6378 8.80469L48.6398 8.80664C49.12 9.22916 49.5884 9.67514 50.046 10.1377L39.5236 20.6592L38.1681 22.0137C37.6103 21.4422 36.9924 20.9261 36.3243 20.4805H36.3253C34.5072 19.2614 32.329 18.5508 29.9786 18.5508C29.7392 18.5508 29.39 18.5494 29.0177 18.5947C28.6071 18.6281 28.1792 18.6857 27.7589 18.7705L27.338 18.8652C24.9733 19.4376 22.8871 20.728 21.34 22.5225C21.0835 22.8046 20.8675 23.0944 20.6788 23.3662C19.3522 25.2452 18.5744 27.5106 18.5743 29.9902C18.5743 32.4648 19.3494 34.7541 20.6847 36.623L20.6886 36.6279C22.2761 38.8323 24.6225 40.4766 27.3829 41.1221V41.1211C27.6534 41.1877 27.8959 41.2319 28.1202 41.2695V41.2705C28.1277 41.2719 28.1353 41.2721 28.1427 41.2734C28.1453 41.2739 28.1479 41.275 28.1505 41.2754V41.2744C28.7756 41.3878 29.4005 41.4306 29.9972 41.4307C32.3433 41.4307 34.5171 40.7209 36.3331 39.5059L36.3341 39.5068C37.0036 39.0646 37.6239 38.5454 38.1866 37.9668L39.5421 39.3223L48.045 47.8232V47.8428L48.5577 48.3545L50.0646 49.8613C49.6121 50.3181 49.1433 50.7648 48.6564 51.1943V51.1953C43.6851 55.5817 37.1425 58.25 29.9972 58.25C19.9259 58.2499 11.0712 52.9563 6.06458 44.999H6.44153C11.3949 52.7693 20.0965 57.9374 29.9972 57.9375C36.9701 57.9375 43.3665 55.3721 48.257 51.124L49.674 49.8926L48.3468 48.5654L39.3302 39.5508L38.257 38.4785L37.0431 39.3887C35.0776 40.8624 32.6439 41.7432 29.9972 41.7432C29.2168 41.7431 28.4492 41.6613 27.7111 41.5137C25.3366 41.0389 23.2125 39.8613 21.5988 38.1992L21.0831 37.668H2.79895C2.58201 36.8882 2.39788 36.0912 2.24524 35.2812C1.92599 33.5596 1.75012 31.7712 1.75012 29.9902C1.75014 28.197 1.90991 26.4321 2.24329 24.7305L2.24719 24.7129L2.25012 24.6943C2.38779 23.9029 2.57331 23.1141 2.79504 22.332H21.0587L21.5734 21.8076C23.2125 20.136 25.3228 18.9602 27.6925 18.4863C28.4306 18.3388 29.1983 18.2568 29.9786 18.2568C32.6147 18.2568 35.0621 19.1237 37.0167 20.6055L38.2325 21.5273L39.3116 20.4492L48.3282 11.4346L49.6554 10.1074L48.2384 8.87598C43.348 4.62789 36.9516 2.0625 29.9786 2.0625C20.0779 2.06253 11.3764 7.23073 6.42297 15.001H6.04504C11.0517 7.04341 19.9071 1.75003 29.9786 1.75ZM2.68567 24.0205C2.2645 25.9455 2.04409 27.9299 2.04407 29.9902C2.04407 32.0494 2.2642 34.0531 2.68567 35.9795L4.37708 35.6094V37.3555H20.4298L19.2833 34.8721C18.6007 33.3935 18.2238 31.728 18.2238 29.9902C18.2238 28.2551 18.5997 26.6087 19.2833 25.1279L20.4298 22.6445H2.98743L2.68567 24.0205Z" stroke="#D14836" stroke-width="3.5"/>
<path d="M29.9786 1.75C37.124 1.75 43.6666 4.41828 48.6378 8.80469L48.6398 8.80664C49.12 9.22916 49.5884 9.67514 50.046 10.1377L39.5236 20.6592L38.1681 22.0137C37.6103 21.4422 36.9924 20.9261 36.3243 20.4805H36.3253C34.5072 19.2614 32.329 18.5508 29.9786 18.5508C29.7392 18.5508 29.39 18.5494 29.0177 18.5947C28.6071 18.6281 28.1792 18.6857 27.7589 18.7705L27.338 18.8652C24.9733 19.4376 22.8871 20.728 21.34 22.5225C21.0835 22.8046 20.8675 23.0944 20.6788 23.3662C19.3522 25.2452 18.5744 27.5106 18.5743 29.9902C18.5743 32.4648 19.3494 34.7541 20.6847 36.623L20.6886 36.6279C22.2761 38.8323 24.6225 40.4766 27.3829 41.1221V41.1211C27.6534 41.1877 27.8959 41.2319 28.1202 41.2695V41.2705C28.1277 41.2719 28.1353 41.2721 28.1427 41.2734C28.1453 41.2739 28.1479 41.275 28.1505 41.2754V41.2744C28.7756 41.3878 29.4005 41.4306 29.9972 41.4307C32.3433 41.4307 34.5171 40.7209 36.3331 39.5059L36.3341 39.5068C37.0036 39.0646 37.6239 38.5454 38.1866 37.9668L39.5421 39.3223L48.045 47.8232V47.8428L48.5577 48.3545L50.0646 49.8613C49.6121 50.3181 49.1433 50.7648 48.6564 51.1943V51.1953C43.6851 55.5817 37.1425 58.25 29.9972 58.25C19.9259 58.2499 11.0712 52.9563 6.06458 44.999H6.44153C11.3949 52.7693 20.0965 57.9374 29.9972 57.9375C36.9701 57.9375 43.3665 55.3721 48.257 51.124L49.674 49.8926L48.3468 48.5654L39.3302 39.5508L38.257 38.4785L37.0431 39.3887C35.0776 40.8624 32.6439 41.7432 29.9972 41.7432C29.2168 41.7431 28.4492 41.6613 27.7111 41.5137C25.3366 41.0389 23.2125 39.8613 21.5988 38.1992L21.0831 37.668H2.79895C2.58201 36.8882 2.39788 36.0912 2.24524 35.2812C1.92599 33.5596 1.75012 31.7712 1.75012 29.9902C1.75014 28.197 1.90991 26.4321 2.24329 24.7305L2.24719 24.7129L2.25012 24.6943C2.38779 23.9029 2.57331 23.1141 2.79504 22.332H21.0587L21.5734 21.8076C23.2125 20.136 25.3228 18.9602 27.6925 18.4863C28.4306 18.3388 29.1983 18.2568 29.9786 18.2568C32.6147 18.2568 35.0621 19.1237 37.0167 20.6055L38.2325 21.5273L39.3116 20.4492L48.3282 11.4346L49.6554 10.1074L48.2384 8.87598C43.348 4.62789 36.9516 2.0625 29.9786 2.0625C20.0779 2.06253 11.3764 7.23073 6.42297 15.001H6.04504C11.0517 7.04341 19.9071 1.75003 29.9786 1.75ZM2.68567 24.0205C2.2645 25.9455 2.04409 27.9299 2.04407 29.9902C2.04407 32.0494 2.2642 34.0531 2.68567 35.9795L4.37708 35.6094V37.3555H20.4298L19.2833 34.8721C18.6007 33.3935 18.2238 31.728 18.2238 29.9902C18.2238 28.2551 18.5997 26.6087 19.2833 25.1279L20.4298 22.6445H2.98743L2.68567 24.0205Z" stroke="white" stroke-width="3.5"/>
<path d="M80.8138 44.5248C78.9083 44.5248 77.1194 44.1748 75.4472 43.4748C73.775 42.7553 72.2972 41.7734 71.0138 40.5289C69.75 39.2845 68.7583 37.8359 68.0388 36.1831C67.3388 34.5303 66.9888 32.7609 66.9888 30.8748C66.9888 28.9887 67.3388 27.2192 68.0388 25.5664C68.7583 23.9137 69.75 22.465 71.0138 21.2206C72.2972 19.9762 73.775 19.0039 75.4472 18.3039C77.1194 17.5845 78.9083 17.2248 80.8138 17.2248C82.5833 17.2248 84.2458 17.5262 85.8013 18.1289C87.3569 18.7123 88.7472 19.5484 89.9722 20.6373L88.6013 26.2081C87.843 24.9442 86.8027 23.8942 85.4805 23.0581C84.1583 22.222 82.6416 21.8039 80.9305 21.8039C79.2777 21.8039 77.7805 22.2123 76.4388 23.0289C75.0972 23.8456 74.0277 24.9345 73.2305 26.2956C72.4527 27.6567 72.0638 29.1831 72.0638 30.8748C72.0638 32.547 72.4527 34.0734 73.2305 35.4539C74.0277 36.815 75.0972 37.9039 76.4388 38.7206C77.7805 39.5373 79.2777 39.9456 80.9305 39.9456C82.6222 39.9456 84.1291 39.5275 85.4513 38.6914C86.793 37.8359 87.843 36.7859 88.6013 35.5414L89.9722 41.1123C88.7472 42.1817 87.3569 43.0178 85.8013 43.6206C84.2458 44.2234 82.5833 44.5248 80.8138 44.5248Z" fill="white"/>
<path d="M98.1826 43.9998V17.7498H103.053V39.7123H111.249V43.9998H98.1826Z" fill="white"/>
<path d="M117.271 43.9998L128.705 16.8456H128.763L140.225 43.9998H135.413L133.167 38.5456H124.155L121.909 43.9998H117.271ZM125.759 34.6956H131.563L130.192 31.3998C129.9 30.6998 129.628 30.0192 129.375 29.3581C129.123 28.6775 128.88 27.89 128.646 26.9956C128.413 27.89 128.17 28.6678 127.917 29.3289C127.684 29.99 127.421 30.6803 127.13 31.3998L125.759 34.6956Z" fill="white"/>
<path d="M148.09 43.9998V17.7498H152.99V43.9998H148.09Z" fill="white"/>
<path d="M163.447 43.9998V16.8748L175.843 32.7123L188.034 16.8748V43.9998H183.397V35.3081C183.397 34.472 183.406 33.5387 183.426 32.5081C183.445 31.4581 183.533 30.272 183.688 28.9498C183.086 29.9609 182.502 30.8456 181.938 31.6039C181.374 32.3623 180.859 33.0623 180.393 33.7039L175.755 40.0331L170.943 33.7039C170.476 33.1012 169.941 32.3914 169.338 31.5748C168.755 30.7387 168.172 29.8345 167.588 28.8623C167.744 30.2428 167.831 31.4484 167.851 32.4789C167.87 33.5095 167.88 34.4525 167.88 35.3081V43.9998H163.447Z" fill="white"/>
<path d="M208.173 43.9998V37.5831H195.485L205.635 17.7498H210.448L202.135 33.7623H208.26V28.3373L212.519 26.0623V33.7623H215.815V37.5831H212.606V43.9998H208.173Z" fill="#D14836"/>
<path d="M221.722 43.9998L233.155 16.8456H233.213L244.676 43.9998H239.863L237.618 38.5456H228.605L226.359 43.9998H221.722ZM230.209 34.6956H236.013L234.643 31.3998C234.351 30.6998 234.079 30.0192 233.826 29.3581C233.573 28.6775 233.33 27.89 233.097 26.9956C232.863 27.89 232.62 28.6678 232.368 29.3289C232.134 29.99 231.872 30.6803 231.58 31.3998L230.209 34.6956Z" fill="white"/>
<path d="M264.761 44.5248C262.855 44.5248 261.066 44.1748 259.394 43.4748C257.722 42.7553 256.244 41.7734 254.961 40.5289C253.697 39.2845 252.705 37.8359 251.986 36.1831C251.286 34.5303 250.936 32.7609 250.936 30.8748C250.936 28.9887 251.286 27.2192 251.986 25.5664C252.705 23.9137 253.697 22.465 254.961 21.2206C256.244 19.9762 257.722 19.0039 259.394 18.3039C261.066 17.5845 262.855 17.2248 264.761 17.2248C266.53 17.2248 268.193 17.5262 269.748 18.1289C271.304 18.7123 272.694 19.5484 273.919 20.6373L272.548 26.2081C271.79 24.9442 270.75 23.8942 269.427 23.0581C268.105 22.222 266.589 21.8039 264.877 21.8039C263.225 21.8039 261.727 22.2123 260.386 23.0289C259.044 23.8456 257.975 24.9345 257.177 26.2956C256.4 27.6567 256.011 29.1831 256.011 30.8748C256.011 32.547 256.4 34.0734 257.177 35.4539C257.975 36.815 259.044 37.9039 260.386 38.7206C261.727 39.5373 263.225 39.9456 264.877 39.9456C266.569 39.9456 268.076 39.5275 269.398 38.6914C270.74 37.8359 271.79 36.7859 272.548 35.5414L273.919 41.1123C272.694 42.1817 271.304 43.0178 269.748 43.6206C268.193 44.2234 266.53 44.5248 264.761 44.5248Z" fill="white"/>
<path d="M294.554 44.5248C292.649 44.5248 290.86 44.1748 289.188 43.4748C287.516 42.7553 286.038 41.7734 284.754 40.5289C283.491 39.2845 282.499 37.8359 281.779 36.1831C281.079 34.5303 280.729 32.7609 280.729 30.8748C280.729 28.9887 281.079 27.2192 281.779 25.5664C282.499 23.9137 283.491 22.465 284.754 21.2206C286.038 19.9762 287.516 19.0039 289.188 18.3039C290.86 17.5845 292.649 17.2248 294.554 17.2248C296.324 17.2248 297.986 17.5262 299.542 18.1289C301.098 18.7123 302.488 19.5484 303.713 20.6373L302.342 26.2081C301.584 24.9442 300.543 23.8942 299.221 23.0581C297.899 22.222 296.382 21.8039 294.671 21.8039C293.018 21.8039 291.521 22.2123 290.179 23.0289C288.838 23.8456 287.768 24.9345 286.971 26.2956C286.193 27.6567 285.804 29.1831 285.804 30.8748C285.804 32.547 286.193 34.0734 286.971 35.4539C287.768 36.815 288.838 37.9039 290.179 38.7206C291.521 39.5373 293.018 39.9456 294.671 39.9456C296.363 39.9456 297.87 39.5275 299.192 38.6914C300.534 37.8359 301.584 36.7859 302.342 35.5414L303.713 41.1123C302.488 42.1817 301.098 43.0178 299.542 43.6206C297.986 44.2234 296.324 44.5248 294.554 44.5248Z" fill="white"/>
<path d="M312.127 43.9998V17.7498H317.027V43.9998H312.127Z" fill="white"/>
<path d="M327.485 43.9998V17.7498H336.322C338.48 17.7498 340.425 18.1095 342.155 18.8289C343.886 19.5289 345.364 20.4914 346.589 21.7164C347.833 22.922 348.776 24.322 349.418 25.9164C350.079 27.4914 350.41 29.1442 350.41 30.8748C350.41 32.6053 350.079 34.2678 349.418 35.8623C348.776 37.4373 347.833 38.8373 346.589 40.0623C345.364 41.2678 343.886 42.2303 342.155 42.9498C340.425 43.6498 338.48 43.9998 336.322 43.9998H327.485ZM332.093 39.7123H335.885C337.498 39.7123 338.898 39.4692 340.085 38.9831C341.271 38.497 342.262 37.8456 343.06 37.0289C343.857 36.1928 344.45 35.2498 344.839 34.1998C345.228 33.1303 345.422 32.022 345.422 30.8748C345.422 29.7275 345.228 28.6289 344.839 27.5789C344.45 26.5095 343.857 25.5567 343.06 24.7206C342.262 23.8845 341.271 23.2331 340.085 22.7664C338.898 22.2803 337.498 22.0373 335.885 22.0373H332.093V39.7123Z" fill="white"/>
<path d="M359.247 43.9998V17.7498H372.955V21.8914H363.855V26.3248H370.914V30.3498H363.855V39.7123H372.955V43.9998H359.247Z" fill="white"/>
<path d="M402.676 44.8748L386.255 28.1623V43.9998H381.822V16.8748L398.214 33.5581V17.7498H402.676V44.8748Z" fill="white"/>
<path d="M411.178 22.0373V17.7498H429.174V22.0373H422.612V43.9998H417.741V22.0373H411.178Z" fill="white"/>
<path d="M444.123 44.5248C442.548 44.5248 441.06 44.2234 439.66 43.6206C438.28 43.0178 437.181 42.2887 436.365 41.4331L437.677 36.0664C438.319 37.2331 439.242 38.2248 440.448 39.0414C441.654 39.8387 442.937 40.2373 444.298 40.2373C445.445 40.2373 446.359 39.9164 447.04 39.2748C447.72 38.6137 448.06 37.8067 448.06 36.8539C448.06 36.0956 447.885 35.4734 447.535 34.9873C447.185 34.5012 446.777 34.1123 446.31 33.8206C445.844 33.5095 445.445 33.2762 445.115 33.1206L441.994 31.5456C441.197 31.1373 440.399 30.6512 439.602 30.0873C438.805 29.5039 438.134 28.765 437.59 27.8706C437.065 26.9567 436.802 25.8289 436.802 24.4873C436.802 23.0484 437.133 21.7845 437.794 20.6956C438.455 19.6067 439.379 18.7609 440.565 18.1581C441.77 17.5359 443.16 17.2248 444.735 17.2248C446.252 17.2248 447.604 17.4775 448.79 17.9831C449.976 18.4692 450.929 18.9942 451.648 19.5581L450.394 24.8081C449.694 23.8553 448.819 23.0581 447.769 22.4164C446.719 21.7748 445.64 21.4539 444.531 21.4539C443.52 21.4539 442.733 21.7262 442.169 22.2706C441.624 22.7956 441.352 23.4567 441.352 24.2539C441.352 24.7789 441.469 25.2359 441.702 25.6248C441.955 26.0137 442.276 26.3539 442.665 26.6456C443.073 26.9178 443.51 27.1706 443.977 27.4039L447.156 28.9789C447.642 29.2123 448.187 29.5234 448.79 29.9123C449.412 30.3012 450.015 30.797 450.598 31.3998C451.181 31.9831 451.658 32.7025 452.027 33.5581C452.416 34.3942 452.61 35.3956 452.61 36.5623C452.61 38.0789 452.251 39.44 451.531 40.6456C450.831 41.8317 449.849 42.7748 448.585 43.4748C447.341 44.1748 445.854 44.5248 444.123 44.5248Z" fill="white"/>
<path d="M80.1951 43.0903C78.2896 43.0903 76.5007 42.7403 74.8285 42.0403C73.1562 41.3209 71.6785 40.3389 70.3951 39.0945C69.1312 37.85 68.1396 36.4014 67.4201 34.7486C66.7201 33.0959 66.3701 31.3264 66.3701 29.4403C66.3701 27.5542 66.7201 25.7847 67.4201 24.132C68.1396 22.4792 69.1312 21.0306 70.3951 19.7861C71.6785 18.5417 73.1562 17.5695 74.8285 16.8695C76.5007 16.15 78.2896 15.7903 80.1951 15.7903C81.9646 15.7903 83.6271 16.0917 85.1826 16.6945C86.7382 17.2778 88.1285 18.1139 89.3535 19.2028L87.9826 24.7736C87.2243 23.5097 86.184 22.4597 84.8618 21.6236C83.5396 20.7875 82.0229 20.3695 80.3118 20.3695C78.659 20.3695 77.1618 20.7778 75.8201 21.5945C74.4785 22.4111 73.409 23.5 72.6118 24.8611C71.834 26.2222 71.4451 27.7486 71.4451 29.4403C71.4451 31.1125 71.834 32.6389 72.6118 34.0195C73.409 35.3806 74.4785 36.4695 75.8201 37.2861C77.1618 38.1028 78.659 38.5111 80.3118 38.5111C82.0035 38.5111 83.5104 38.0931 84.8326 37.257C86.1743 36.4014 87.2243 35.3514 87.9826 34.107L89.3535 39.6778C88.1285 40.7472 86.7382 41.5834 85.1826 42.1861C83.6271 42.7889 81.9646 43.0903 80.1951 43.0903Z" fill="white"/>
<path d="M97.5639 42.5653V16.3153H102.435V38.2778H110.631V42.5653H97.5639Z" fill="white"/>
<path d="M116.653 42.5653L128.086 15.4111H128.144L139.607 42.5653H134.794L132.548 37.1111H123.536L121.29 42.5653H116.653ZM125.14 33.2611H130.944L129.573 29.9653C129.282 29.2653 129.009 28.5847 128.757 27.9236C128.504 27.2431 128.261 26.4556 128.028 25.5611C127.794 26.4556 127.551 27.2334 127.298 27.8945C127.065 28.5556 126.803 29.2459 126.511 29.9653L125.14 33.2611Z" fill="white"/>
<path d="M147.471 42.5653V16.3153H152.371V42.5653H147.471Z" fill="white"/>
<path d="M162.828 42.5653V15.4403L175.224 31.2778L187.415 15.4403V42.5653H182.778V33.8736C182.778 33.0375 182.788 32.1042 182.807 31.0736C182.827 30.0236 182.914 28.8375 183.07 27.5153C182.467 28.5264 181.884 29.4111 181.32 30.1695C180.756 30.9278 180.24 31.6278 179.774 32.2695L175.136 38.5986L170.324 32.2695C169.857 31.6667 169.322 30.957 168.72 30.1403C168.136 29.3042 167.553 28.4 166.97 27.4278C167.125 28.8084 167.213 30.0139 167.232 31.0445C167.252 32.075 167.261 33.0181 167.261 33.8736V42.5653H162.828Z" fill="white"/>
<path d="M207.933 42.5653V35.507H195.333L205.162 16.3153H208.662L200.146 32.707H208.021V26.8153L210.996 25.2403V32.707H214.933V35.507H211.083V42.5653H207.933Z" fill="#D14836"/>
<path d="M221.103 42.5653L232.536 15.4111H232.595L244.057 42.5653H239.245L236.999 37.1111H227.986L225.74 42.5653H221.103ZM229.59 33.2611H235.395L234.024 29.9653C233.732 29.2653 233.46 28.5847 233.207 27.9236C232.954 27.2431 232.711 26.4556 232.478 25.5611C232.245 26.4556 232.002 27.2334 231.749 27.8945C231.515 28.5556 231.253 29.2459 230.961 29.9653L229.59 33.2611Z" fill="white"/>
<path d="M264.142 43.0903C262.236 43.0903 260.448 42.7403 258.775 42.0403C257.103 41.3209 255.625 40.3389 254.342 39.0945C253.078 37.85 252.086 36.4014 251.367 34.7486C250.667 33.0959 250.317 31.3264 250.317 29.4403C250.317 27.5542 250.667 25.7847 251.367 24.132C252.086 22.4792 253.078 21.0306 254.342 19.7861C255.625 18.5417 257.103 17.5695 258.775 16.8695C260.448 16.15 262.236 15.7903 264.142 15.7903C265.911 15.7903 267.574 16.0917 269.13 16.6945C270.685 17.2778 272.075 18.1139 273.3 19.2028L271.93 24.7736C271.171 23.5097 270.131 22.4597 268.809 21.6236C267.486 20.7875 265.97 20.3695 264.259 20.3695C262.606 20.3695 261.109 20.7778 259.767 21.5945C258.425 22.4111 257.356 23.5 256.559 24.8611C255.781 26.2222 255.392 27.7486 255.392 29.4403C255.392 31.1125 255.781 32.6389 256.559 34.0195C257.356 35.3806 258.425 36.4695 259.767 37.2861C261.109 38.1028 262.606 38.5111 264.259 38.5111C265.95 38.5111 267.457 38.0931 268.78 37.257C270.121 36.4014 271.171 35.3514 271.93 34.107L273.3 39.6778C272.075 40.7472 270.685 41.5834 269.13 42.1861C267.574 42.7889 265.911 43.0903 264.142 43.0903Z" fill="white"/>
<path d="M293.936 43.0903C292.03 43.0903 290.241 42.7403 288.569 42.0403C286.897 41.3209 285.419 40.3389 284.136 39.0945C282.872 37.85 281.88 36.4014 281.161 34.7486C280.461 33.0959 280.111 31.3264 280.111 29.4403C280.111 27.5542 280.461 25.7847 281.161 24.132C281.88 22.4792 282.872 21.0306 284.136 19.7861C285.419 18.5417 286.897 17.5695 288.569 16.8695C290.241 16.15 292.03 15.7903 293.936 15.7903C295.705 15.7903 297.368 16.0917 298.923 16.6945C300.479 17.2778 301.869 18.1139 303.094 19.2028L301.723 24.7736C300.965 23.5097 299.925 22.4597 298.602 21.6236C297.28 20.7875 295.764 20.3695 294.052 20.3695C292.4 20.3695 290.902 20.7778 289.561 21.5945C288.219 22.4111 287.15 23.5 286.352 24.8611C285.575 26.2222 285.186 27.7486 285.186 29.4403C285.186 31.1125 285.575 32.6389 286.352 34.0195C287.15 35.3806 288.219 36.4695 289.561 37.2861C290.902 38.1028 292.4 38.5111 294.052 38.5111C295.744 38.5111 297.251 38.0931 298.573 37.257C299.915 36.4014 300.965 35.3514 301.723 34.107L303.094 39.6778C301.869 40.7472 300.479 41.5834 298.923 42.1861C297.368 42.7889 295.705 43.0903 293.936 43.0903Z" fill="white"/>
<path d="M311.509 42.5653V16.3153H316.409V42.5653H311.509Z" fill="white"/>
<path d="M326.866 42.5653V16.3153H335.703C337.862 16.3153 339.806 16.675 341.537 17.3945C343.267 18.0945 344.745 19.057 345.97 20.282C347.214 21.4875 348.158 22.8875 348.799 24.482C349.46 26.057 349.791 27.7097 349.791 29.4403C349.791 31.1709 349.46 32.8334 348.799 34.4278C348.158 36.0028 347.214 37.4028 345.97 38.6278C344.745 39.8334 343.267 40.7959 341.537 41.5153C339.806 42.2153 337.862 42.5653 335.703 42.5653H326.866ZM331.474 38.2778H335.266C336.88 38.2778 338.28 38.0347 339.466 37.5486C340.652 37.0625 341.644 36.4111 342.441 35.5945C343.238 34.7584 343.831 33.8153 344.22 32.7653C344.609 31.6959 344.803 30.5875 344.803 29.4403C344.803 28.2931 344.609 27.1945 344.22 26.1445C343.831 25.075 343.238 24.1222 342.441 23.2861C341.644 22.45 340.652 21.7986 339.466 21.332C338.28 20.8459 336.88 20.6028 335.266 20.6028H331.474V38.2778Z" fill="white"/>
<path d="M358.628 42.5653V16.3153H372.337V20.457H363.237V24.8903H370.295V28.9153H363.237V38.2778H372.337V42.5653H358.628Z" fill="white"/>
<path d="M402.058 43.4403L385.637 26.7278V42.5653H381.203V15.4403L397.595 32.1236V16.3153H402.058V43.4403Z" fill="white"/>
<path d="M410.56 20.6028V16.3153H428.555V20.6028H421.993V42.5653H417.122V20.6028H410.56Z" fill="white"/>
<path d="M443.504 43.0903C441.929 43.0903 440.442 42.7889 439.042 42.1861C437.661 41.5834 436.563 40.8542 435.746 39.9986L437.058 34.632C437.7 35.7986 438.624 36.7903 439.829 37.607C441.035 38.4042 442.318 38.8028 443.679 38.8028C444.826 38.8028 445.74 38.482 446.421 37.8403C447.101 37.1792 447.442 36.3722 447.442 35.4195C447.442 34.6611 447.267 34.0389 446.917 33.5528C446.567 33.0667 446.158 32.6778 445.692 32.3861C445.225 32.075 444.826 31.8417 444.496 31.6861L441.375 30.1111C440.578 29.7028 439.781 29.2167 438.983 28.6528C438.186 28.0695 437.515 27.3306 436.971 26.4361C436.446 25.5222 436.183 24.3945 436.183 23.0528C436.183 21.6139 436.514 20.35 437.175 19.2611C437.836 18.1722 438.76 17.3264 439.946 16.7236C441.151 16.1014 442.542 15.7903 444.117 15.7903C445.633 15.7903 446.985 16.0431 448.171 16.5486C449.357 17.0347 450.31 17.5597 451.029 18.1236L449.775 23.3736C449.075 22.4209 448.2 21.6236 447.15 20.982C446.1 20.3403 445.021 20.0195 443.913 20.0195C442.901 20.0195 442.114 20.2917 441.55 20.8361C441.006 21.3611 440.733 22.0222 440.733 22.8195C440.733 23.3445 440.85 23.8014 441.083 24.1903C441.336 24.5792 441.657 24.9195 442.046 25.2111C442.454 25.4834 442.892 25.7361 443.358 25.9695L446.538 27.5445C447.024 27.7778 447.568 28.0889 448.171 28.4778C448.793 28.8667 449.396 29.3625 449.979 29.9653C450.563 30.5486 451.039 31.2681 451.408 32.1236C451.797 32.9597 451.992 33.9611 451.992 35.1278C451.992 36.6445 451.632 38.0056 450.913 39.2111C450.213 40.3972 449.231 41.3403 447.967 42.0403C446.722 42.7403 445.235 43.0903 443.504 43.0903Z" fill="white"/>
</svg>
