<svg width="288" height="38" viewBox="0 0 288 38" fill="none" xmlns="http://www.w3.org/2000/svg">
<path d="M18.9863 1.1084C23.5117 1.1084 27.6553 2.79819 30.8037 5.57617L30.8047 5.57812C31.1086 5.84555 31.4057 6.12718 31.6953 6.41992L25.0312 13.084L24.1729 13.9414C23.8196 13.5795 23.428 13.2529 23.0049 12.9707H23.0059C21.8544 12.1987 20.4748 11.749 18.9863 11.749C18.8231 11.749 18.5791 11.7462 18.3232 11.7822C18.0802 11.8039 17.8285 11.8378 17.5811 11.8877L17.3135 11.9482C15.8161 12.3108 14.4944 13.1273 13.5146 14.2637C13.4321 14.3545 13.3565 14.4469 13.2861 14.5381L13.0908 14.8066C12.254 15.9951 11.7637 17.4272 11.7637 18.9941C11.7637 20.5612 12.2541 22.0107 13.0996 23.1943L13.1025 23.1982C14.1048 24.5899 15.5851 25.6277 17.3262 26.0391V26.04C17.3314 26.0413 17.3366 26.0427 17.3418 26.0439V26.043C17.5212 26.0872 17.6814 26.117 17.8291 26.1416V26.1406C18.2248 26.2124 18.6204 26.2392 18.998 26.2393C20.4838 26.2393 21.8606 25.79 23.0107 25.0205L23.0117 25.0215C23.4357 24.7414 23.8282 24.4123 24.1846 24.0459L25.043 24.9043L30.4287 30.2891V30.2998L30.7529 30.625L31.708 31.5791C31.4214 31.8684 31.1238 32.1508 30.8154 32.4229V32.4238C27.667 35.2018 23.5233 36.8916 18.998 36.8916C12.6195 36.8915 7.01165 33.5388 3.84082 28.499H4.0791C7.21619 33.4204 12.7274 36.6942 18.998 36.6943C23.4141 36.6943 27.4653 35.0692 30.5625 32.3789L31.46 31.5986L30.6191 30.7578L24.9092 25.0488L24.2295 24.3691L23.4609 24.9463C22.2161 25.8797 20.6744 26.4375 18.998 26.4375C18.5038 26.4375 18.0173 26.3855 17.5498 26.292C16.046 25.9912 14.7007 25.2451 13.6787 24.1924L13.3525 23.8564H1.77441C1.63696 23.3625 1.51858 22.8579 1.42188 22.3447C1.2197 21.2544 1.1084 20.122 1.1084 18.9941C1.1084 17.8584 1.20977 16.7408 1.4209 15.6631L1.4248 15.6396C1.51202 15.1383 1.631 14.639 1.77148 14.1436H13.3369L13.6631 13.8115C14.7012 12.7529 16.0374 12.0081 17.5381 11.708C18.0056 11.6145 18.4921 11.5625 18.9863 11.5625C20.656 11.5625 22.2064 12.1122 23.4443 13.0508L24.2139 13.6338L24.8975 12.9512L30.6074 7.24219L31.4482 6.40137L30.5508 5.62109C27.4535 2.93074 23.4024 1.30566 18.9863 1.30566C12.7157 1.30571 7.20451 4.57959 4.06738 9.50098H3.82812C6.99894 4.46098 12.6076 1.10844 18.9863 1.1084ZM1.70117 15.2129C1.43439 16.4322 1.29492 17.6891 1.29492 18.9941C1.29493 20.2983 1.43423 21.5671 1.70117 22.7871L2.77148 22.5518V23.6582H12.9385L12.2129 22.0859C11.7806 21.1495 11.541 20.0947 11.541 18.9941C11.541 17.8952 11.7799 16.8519 12.2129 15.9141L12.9385 14.3418H1.8916L1.70117 15.2129Z" stroke="#D14836" stroke-width="2.21667"/>
<path d="M51.1821 27.5985C49.9753 27.5985 48.8423 27.3768 47.7832 26.9335C46.7241 26.4779 45.7882 25.856 44.9754 25.0678C44.175 24.2797 43.5469 23.3622 43.0913 22.3154C42.6479 21.2687 42.4263 20.148 42.4263 18.9535C42.4263 17.759 42.6479 16.6383 43.0913 15.5916C43.5469 14.5448 44.175 13.6273 44.9754 12.8392C45.7882 12.051 46.7241 11.4353 47.7832 10.992C48.8423 10.5363 49.9753 10.3085 51.1821 10.3085C52.3028 10.3085 53.3557 10.4994 54.3409 10.8811C55.326 11.2506 56.2065 11.7801 56.9824 12.4697L56.1142 15.9979C55.6339 15.1975 54.9751 14.5325 54.1377 14.0029C53.3003 13.4734 52.3397 13.2086 51.256 13.2086C50.2092 13.2086 49.261 13.4672 48.4113 13.9845C47.5615 14.5017 46.8842 15.1913 46.3793 16.0534C45.8867 16.9154 45.6404 17.8821 45.6404 18.9535C45.6404 20.0126 45.8867 20.9793 46.3793 21.8536C46.8842 22.7157 47.5615 23.4053 48.4113 23.9225C49.261 24.4397 50.2092 24.6984 51.256 24.6984C52.3274 24.6984 53.2818 24.4336 54.1192 23.9041C54.9689 23.3622 55.6339 22.6972 56.1142 21.9091L56.9824 25.4372C56.2065 26.1146 55.326 26.6441 54.3409 27.0259C53.3557 27.4076 52.3028 27.5985 51.1821 27.5985Z" fill="#0A1F8F"/>
<path d="M62.1823 27.266V10.641H65.2672V24.5506H70.4579V27.266H62.1823Z" fill="#0A1F8F"/>
<path d="M74.2718 27.266L81.5129 10.0684H81.5499L88.8094 27.266H85.7615L84.3392 23.8117H78.6312L77.2089 27.266H74.2718ZM79.6472 21.3734H83.3232L82.455 19.286C82.2703 18.8427 82.0979 18.4116 81.9378 17.9929C81.7777 17.5619 81.6237 17.0632 81.476 16.4967C81.3282 17.0632 81.1743 17.5558 81.0142 17.9745C80.8664 18.3932 80.7001 18.8303 80.5154 19.286L79.6472 21.3734Z" fill="#0A1F8F"/>
<path d="M93.79 27.266V10.641H96.8933V27.266H93.79Z" fill="#0A1F8F"/>
<path d="M103.516 27.266V10.0868L111.367 20.1172L119.088 10.0868V27.266H116.151V21.7613C116.151 21.2317 116.157 20.6406 116.17 19.9879C116.182 19.3229 116.237 18.5717 116.336 17.7343C115.954 18.3747 115.585 18.935 115.228 19.4153C114.87 19.8956 114.544 20.3389 114.249 20.7453L111.311 24.7538L108.264 20.7453C107.968 20.3635 107.629 19.9141 107.248 19.3968C106.878 18.8673 106.509 18.2947 106.139 17.6789C106.238 18.5533 106.293 19.3168 106.306 19.9695C106.318 20.6222 106.324 21.2194 106.324 21.7613V27.266H103.516Z" fill="#0A1F8F"/>
<path d="M131.843 27.266V23.2021H123.807L130.236 10.641H133.284L128.019 20.7822H131.898V17.3464L134.595 15.9056V20.7822H136.683V23.2021H134.651V27.266H131.843Z" fill="#D14836"/>
<path d="M140.424 27.266L147.665 10.0684H147.702L154.961 27.266H151.913L150.491 23.8117H144.783L143.361 27.266H140.424ZM145.799 21.3734H149.475L148.607 19.286C148.422 18.8427 148.25 18.4116 148.09 17.9929C147.93 17.5619 147.776 17.0632 147.628 16.4967C147.48 17.0632 147.326 17.5558 147.166 17.9745C147.018 18.3932 146.852 18.8303 146.667 19.286L145.799 21.3734Z" fill="#0A1F8F"/>
<path d="M167.682 27.5985C166.475 27.5985 165.342 27.3768 164.283 26.9335C163.224 26.4779 162.288 25.856 161.475 25.0678C160.675 24.2797 160.047 23.3622 159.591 22.3154C159.148 21.2687 158.926 20.148 158.926 18.9535C158.926 17.759 159.148 16.6383 159.591 15.5916C160.047 14.5448 160.675 13.6273 161.475 12.8392C162.288 12.051 163.224 11.4353 164.283 10.992C165.342 10.5363 166.475 10.3085 167.682 10.3085C168.802 10.3085 169.855 10.4994 170.841 10.8811C171.826 11.2506 172.706 11.7801 173.482 12.4697L172.614 15.9979C172.134 15.1975 171.475 14.5325 170.637 14.0029C169.8 13.4734 168.839 13.2086 167.756 13.2086C166.709 13.2086 165.761 13.4672 164.911 13.9845C164.061 14.5017 163.384 15.1913 162.879 16.0534C162.386 16.9154 162.14 17.8821 162.14 18.9535C162.14 20.0126 162.386 20.9793 162.879 21.8536C163.384 22.7157 164.061 23.4053 164.911 23.9225C165.761 24.4397 166.709 24.6984 167.756 24.6984C168.827 24.6984 169.781 24.4336 170.619 23.9041C171.469 23.3622 172.134 22.6972 172.614 21.9091L173.482 25.4372C172.706 26.1146 171.826 26.6441 170.841 27.0259C169.855 27.4076 168.802 27.5985 167.682 27.5985Z" fill="#0A1F8F"/>
<path d="M186.551 27.5985C185.344 27.5985 184.211 27.3768 183.152 26.9335C182.093 26.4779 181.157 25.856 180.344 25.0678C179.544 24.2797 178.916 23.3622 178.46 22.3154C178.017 21.2687 177.795 20.148 177.795 18.9535C177.795 17.759 178.017 16.6383 178.46 15.5916C178.916 14.5448 179.544 13.6273 180.344 12.8392C181.157 12.051 182.093 11.4353 183.152 10.992C184.211 10.5363 185.344 10.3085 186.551 10.3085C187.672 10.3085 188.725 10.4994 189.71 10.8811C190.695 11.2506 191.576 11.7801 192.351 12.4697L191.483 15.9979C191.003 15.1975 190.344 14.5325 189.507 14.0029C188.669 13.4734 187.709 13.2086 186.625 13.2086C185.578 13.2086 184.63 13.4672 183.78 13.9845C182.931 14.5017 182.253 15.1913 181.748 16.0534C181.256 16.9154 181.01 17.8821 181.01 18.9535C181.01 20.0126 181.256 20.9793 181.748 21.8536C182.253 22.7157 182.931 23.4053 183.78 23.9225C184.63 24.4397 185.578 24.6984 186.625 24.6984C187.696 24.6984 188.651 24.4336 189.488 23.9041C190.338 23.3622 191.003 22.6972 191.483 21.9091L192.351 25.4372C191.576 26.1146 190.695 26.6441 189.71 27.0259C188.725 27.4076 187.672 27.5985 186.551 27.5985Z" fill="#0A1F8F"/>
<path d="M197.681 27.266V10.641H200.784V27.266H197.681Z" fill="#0A1F8F"/>
<path d="M207.407 27.266V10.641H213.004C214.371 10.641 215.602 10.8688 216.698 11.3245C217.794 11.7678 218.73 12.3774 219.506 13.1532C220.294 13.9167 220.892 14.8034 221.298 15.8132C221.717 16.8107 221.926 17.8575 221.926 18.9535C221.926 20.0495 221.717 21.1024 221.298 22.1122C220.892 23.1097 220.294 23.9964 219.506 24.7722C218.73 25.5358 217.794 26.1453 216.698 26.601C215.602 27.0443 214.371 27.266 213.004 27.266H207.407ZM210.326 24.5506H212.727C213.749 24.5506 214.636 24.3966 215.387 24.0888C216.138 23.7809 216.766 23.3684 217.271 22.8511C217.776 22.3216 218.152 21.7243 218.398 21.0593C218.644 20.382 218.767 19.6801 218.767 18.9535C218.767 18.2269 218.644 17.5311 218.398 16.8661C218.152 16.1888 217.776 15.5854 217.271 15.0559C216.766 14.5263 216.138 14.1138 215.387 13.8182C214.636 13.5103 213.749 13.3564 212.727 13.3564H210.326V24.5506Z" fill="#0A1F8F"/>
<path d="M227.523 27.266V10.641H236.205V13.2641H230.442V16.0718H234.912V18.621H230.442V24.5506H236.205V27.266H227.523Z" fill="#0A1F8F"/>
<path d="M255.028 27.8202L244.628 17.2356V27.266H241.821V10.0868L252.202 20.6529V10.641H255.028V27.8202Z" fill="#0A1F8F"/>
<path d="M260.413 13.3564V10.641H271.81V13.3564H267.654V27.266H264.569V13.3564H260.413Z" fill="#0A1F8F"/>
<path d="M281.278 27.5985C280.28 27.5985 279.338 27.4076 278.452 27.0259C277.577 26.6441 276.881 26.1823 276.364 25.6404L277.196 22.2416C277.602 22.9804 278.187 23.6085 278.95 24.1257C279.714 24.6306 280.527 24.8831 281.389 24.8831C282.115 24.8831 282.694 24.6799 283.125 24.2735C283.556 23.8548 283.772 23.3437 283.772 22.7403C283.772 22.26 283.661 21.866 283.439 21.5581C283.217 21.2502 282.959 21.0039 282.663 20.8192C282.368 20.6222 282.115 20.4744 281.906 20.3759L279.929 19.3784C279.425 19.1197 278.92 18.8119 278.415 18.4547C277.91 18.0853 277.485 17.6173 277.14 17.0509C276.808 16.4721 276.641 15.7578 276.641 14.9081C276.641 13.9968 276.851 13.1963 277.269 12.5067C277.688 11.8171 278.273 11.2814 279.024 10.8996C279.788 10.5055 280.668 10.3085 281.666 10.3085C282.626 10.3085 283.482 10.4686 284.233 10.7888C284.985 11.0966 285.588 11.4291 286.044 11.7863L285.249 15.1113C284.806 14.5078 284.252 14.0029 283.587 13.5966C282.922 13.1902 282.238 12.987 281.536 12.987C280.896 12.987 280.397 13.1594 280.04 13.5042C279.695 13.8367 279.523 14.2554 279.523 14.7603C279.523 15.0928 279.597 15.3822 279.745 15.6285C279.905 15.8748 280.108 16.0903 280.354 16.275C280.613 16.4474 280.89 16.6075 281.186 16.7553L283.199 17.7528C283.507 17.9006 283.852 18.0976 284.233 18.3439C284.628 18.5902 285.009 18.9042 285.379 19.286C285.748 19.6554 286.05 20.1111 286.284 20.6529C286.53 21.1825 286.653 21.8167 286.653 22.5556C286.653 23.5161 286.425 24.3782 285.97 25.1417C285.526 25.8929 284.905 26.4902 284.104 26.9335C283.316 27.3768 282.374 27.5985 281.278 27.5985Z" fill="#0A1F8F"/>
</svg>
