<svg width="288" height="38" viewBox="0 0 288 38" fill="none" xmlns="http://www.w3.org/2000/svg">
<path d="M18.9864 1.1084C23.5117 1.1084 27.6554 2.79819 30.8038 5.57617L30.8048 5.57812C31.1087 5.84555 31.4058 6.12718 31.6954 6.41992L25.0313 13.084L24.1729 13.9414C23.8196 13.5795 23.4281 13.2529 23.005 12.9707H23.0059C21.8545 12.1987 20.4749 11.749 18.9864 11.749C18.8232 11.749 18.5792 11.7462 18.3233 11.7822C18.0803 11.8039 17.8286 11.8378 17.5811 11.8877L17.3136 11.9482C15.8162 12.3108 14.4945 13.1273 13.5147 14.2637C13.4322 14.3545 13.3566 14.4469 13.2862 14.5381L13.0909 14.8066C12.2541 15.9951 11.7638 17.4272 11.7638 18.9941C11.7638 20.5612 12.2542 22.0107 13.0997 23.1943L13.1026 23.1982C14.1049 24.5899 15.5851 25.6277 17.3263 26.0391V26.04C17.3315 26.0413 17.3367 26.0427 17.3419 26.0439V26.043C17.5213 26.0872 17.6815 26.117 17.8292 26.1416V26.1406C18.2249 26.2124 18.6204 26.2392 18.9981 26.2393C20.4839 26.2393 21.8607 25.79 23.0108 25.0205L23.0118 25.0215C23.4357 24.7414 23.8283 24.4123 24.1847 24.0459L25.043 24.9043L30.4288 30.2891V30.2998L30.753 30.625L31.7081 31.5791C31.4215 31.8684 31.1239 32.1508 30.8155 32.4229V32.4238C27.6671 35.2018 23.5234 36.8916 18.9981 36.8916C12.6196 36.8915 7.01173 33.5388 3.8409 28.499H4.07918C7.21627 33.4204 12.7275 36.6942 18.9981 36.6943C23.4142 36.6943 27.4654 35.0692 30.5626 32.3789L31.46 31.5986L30.6192 30.7578L24.9093 25.0488L24.2296 24.3691L23.461 24.9463C22.2162 25.8797 20.6744 26.4375 18.9981 26.4375C18.5039 26.4375 18.0173 26.3855 17.5499 26.292C16.0461 25.9912 14.7008 25.2451 13.6788 24.1924L13.3526 23.8564H1.77449C1.63704 23.3625 1.51866 22.8579 1.42196 22.3447C1.21978 21.2544 1.10848 20.122 1.10848 18.9941C1.10848 17.8584 1.20985 16.7408 1.42098 15.6631L1.42488 15.6396C1.5121 15.1383 1.63108 14.639 1.77156 14.1436H13.337L13.6632 13.8115C14.7012 12.7529 16.0375 12.0081 17.5382 11.708C18.0057 11.6145 18.4921 11.5625 18.9864 11.5625C20.6561 11.5625 22.2064 12.1122 23.4444 13.0508L24.2139 13.6338L24.8975 12.9512L30.6075 7.24219L31.4483 6.40137L30.5509 5.62109C27.4536 2.93074 23.4025 1.30566 18.9864 1.30566C12.7158 1.30571 7.20459 4.57959 4.06746 9.50098H3.82821C6.99902 4.46098 12.6077 1.10844 18.9864 1.1084ZM1.70125 15.2129C1.43447 16.4322 1.295 17.6891 1.295 18.9941C1.29501 20.2983 1.43431 21.5671 1.70125 22.7871L2.77156 22.5518V23.6582H12.9386L12.213 22.0859C11.7807 21.1495 11.5411 20.0947 11.5411 18.9941C11.5411 17.8952 11.78 16.852 12.213 15.9141L12.9386 14.3418H1.89168L1.70125 15.2129Z" stroke="#D14836" stroke-width="2.21667"/>
<path d="M51.1821 27.5981C49.9753 27.5981 48.8423 27.3765 47.7832 26.9331C46.7242 26.4775 45.7882 25.8556 44.9755 25.0674C44.175 24.2793 43.5469 23.3618 43.0913 22.3151C42.648 21.2683 42.4263 20.1477 42.4263 18.9531C42.4263 17.7586 42.648 16.6379 43.0913 15.5912C43.5469 14.5444 44.175 13.627 44.9755 12.8388C45.7882 12.0507 46.7242 11.4349 47.7832 10.9916C48.8423 10.5359 49.9753 10.3081 51.1821 10.3081C52.3028 10.3081 53.3557 10.499 54.3409 10.8808C55.3261 11.2502 56.2066 11.7797 56.9824 12.4694L56.1142 15.9976C55.6339 15.1971 54.9751 14.5321 54.1377 14.0026C53.3003 13.473 52.3397 13.2083 51.256 13.2083C50.2093 13.2083 49.261 13.4669 48.4113 13.9841C47.5616 14.5013 46.8843 15.1909 46.3793 16.053C45.8868 16.915 45.6405 17.8817 45.6405 18.9531C45.6405 20.0122 45.8868 20.9789 46.3793 21.8533C46.8843 22.7153 47.5616 23.4049 48.4113 23.9222C49.261 24.4394 50.2093 24.698 51.256 24.698C52.3274 24.698 53.2818 24.4332 54.1192 23.9037C54.9689 23.3618 55.6339 22.6968 56.1142 21.9087L56.9824 25.4369C56.2066 26.1142 55.3261 26.6437 54.3409 27.0255C53.3557 27.4072 52.3028 27.5981 51.1821 27.5981ZM62.1823 27.2656V10.6406H65.2672V24.5502H70.4579V27.2656H62.1823ZM74.2718 27.2656L81.5129 10.068H81.5499L88.8095 27.2656H85.7615L84.3392 23.8113H78.6313L77.2089 27.2656H74.2718ZM79.6472 21.373H83.3232L82.455 19.2856C82.2703 18.8423 82.0979 18.4113 81.9378 17.9926C81.7777 17.5616 81.6238 17.0628 81.476 16.4963C81.3282 17.0628 81.1743 17.5554 81.0142 17.9741C80.8664 18.3928 80.7002 18.83 80.5154 19.2856L79.6472 21.373ZM93.79 27.2656V10.6406H96.8934V27.2656H93.79ZM103.516 27.2656V10.0865L111.367 20.1169L119.088 10.0865V27.2656H116.151V21.7609C116.151 21.2314 116.157 20.6403 116.17 19.9876C116.182 19.3226 116.237 18.5714 116.336 17.734C115.954 18.3743 115.585 18.9347 115.228 19.4149C114.87 19.8952 114.544 20.3385 114.249 20.7449L111.312 24.7534L108.264 20.7449C107.968 20.3632 107.629 19.9137 107.248 19.3965C106.878 18.8669 106.509 18.2943 106.139 17.6785C106.238 18.5529 106.293 19.3164 106.306 19.9691C106.318 20.6218 106.324 21.2191 106.324 21.7609V27.2656H103.516ZM140.424 27.2656L147.665 10.068H147.702L154.961 27.2656H151.913L150.491 23.8113H144.783L143.361 27.2656H140.424ZM145.799 21.373H149.475L148.607 19.2856C148.422 18.8423 148.25 18.4113 148.09 17.9926C147.93 17.5616 147.776 17.0628 147.628 16.4963C147.48 17.0628 147.326 17.5554 147.166 17.9741C147.018 18.3928 146.852 18.83 146.667 19.2856L145.799 21.373ZM167.682 27.5981C166.475 27.5981 165.342 27.3765 164.283 26.9331C163.224 26.4775 162.288 25.8556 161.475 25.0674C160.675 24.2793 160.047 23.3618 159.591 22.3151C159.148 21.2683 158.926 20.1477 158.926 18.9531C158.926 17.7586 159.148 16.6379 159.591 15.5912C160.047 14.5444 160.675 13.627 161.475 12.8388C162.288 12.0507 163.224 11.4349 164.283 10.9916C165.342 10.5359 166.475 10.3081 167.682 10.3081C168.802 10.3081 169.855 10.499 170.841 10.8808C171.826 11.2502 172.706 11.7797 173.482 12.4694L172.614 15.9976C172.134 15.1971 171.475 14.5321 170.637 14.0026C169.8 13.473 168.839 13.2083 167.756 13.2083C166.709 13.2083 165.761 13.4669 164.911 13.9841C164.061 14.5013 163.384 15.1909 162.879 16.053C162.386 16.915 162.14 17.8817 162.14 18.9531C162.14 20.0122 162.386 20.9789 162.879 21.8533C163.384 22.7153 164.061 23.4049 164.911 23.9222C165.761 24.4394 166.709 24.698 167.756 24.698C168.827 24.698 169.781 24.4332 170.619 23.9037C171.469 23.3618 172.134 22.6968 172.614 21.9087L173.482 25.4369C172.706 26.1142 171.826 26.6437 170.841 27.0255C169.855 27.4072 168.802 27.5981 167.682 27.5981ZM186.551 27.5981C185.344 27.5981 184.211 27.3765 183.152 26.9331C182.093 26.4775 181.157 25.8556 180.345 25.0674C179.544 24.2793 178.916 23.3618 178.46 22.3151C178.017 21.2683 177.795 20.1477 177.795 18.9531C177.795 17.7586 178.017 16.6379 178.46 15.5912C178.916 14.5444 179.544 13.627 180.345 12.8388C181.157 12.0507 182.093 11.4349 183.152 10.9916C184.211 10.5359 185.344 10.3081 186.551 10.3081C187.672 10.3081 188.725 10.499 189.71 10.8808C190.695 11.2502 191.576 11.7797 192.351 12.4694L191.483 15.9976C191.003 15.1971 190.344 14.5321 189.507 14.0026C188.669 13.473 187.709 13.2083 186.625 13.2083C185.578 13.2083 184.63 13.4669 183.78 13.9841C182.931 14.5013 182.253 15.1909 181.748 16.053C181.256 16.915 181.01 17.8817 181.01 18.9531C181.01 20.0122 181.256 20.9789 181.748 21.8533C182.253 22.7153 182.931 23.4049 183.78 23.9222C184.63 24.4394 185.578 24.698 186.625 24.698C187.696 24.698 188.651 24.4332 189.488 23.9037C190.338 23.3618 191.003 22.6968 191.483 21.9087L192.351 25.4369C191.576 26.1142 190.695 26.6437 189.71 27.0255C188.725 27.4072 187.672 27.5981 186.551 27.5981ZM197.681 27.2656V10.6406H200.784V27.2656H197.681ZM207.407 27.2656V10.6406H213.004C214.371 10.6406 215.602 10.8684 216.698 11.3241C217.794 11.7674 218.73 12.377 219.506 13.1528C220.294 13.9164 220.892 14.803 221.298 15.8128C221.717 16.8103 221.926 17.8571 221.926 18.9531C221.926 20.0491 221.717 21.1021 221.298 22.1119C220.892 23.1094 220.294 23.996 219.506 24.7719C218.73 25.5354 217.794 26.145 216.698 26.6006C215.602 27.044 214.371 27.2656 213.004 27.2656H207.407ZM210.326 24.5502H212.727C213.749 24.5502 214.636 24.3963 215.387 24.0884C216.138 23.7805 216.766 23.368 217.271 22.8508C217.776 22.3212 218.152 21.724 218.398 21.059C218.644 20.3816 218.767 19.6797 218.767 18.9531C218.767 18.2266 218.644 17.5308 218.398 16.8658C218.152 16.1884 217.776 15.585 217.271 15.0555C216.766 14.5259 216.138 14.1134 215.387 13.8178C214.636 13.51 213.749 13.356 212.727 13.356H210.326V24.5502ZM227.523 27.2656V10.6406H236.205V13.2637H230.442V16.0715H234.912V18.6206H230.442V24.5502H236.205V27.2656H227.523ZM255.028 27.8198L244.628 17.2352V27.2656H241.821V10.0865L252.202 20.6526V10.6406H255.028V27.8198ZM260.413 13.356V10.6406H271.81V13.356H267.654V27.2656H264.569V13.356H260.413ZM281.278 27.5981C280.28 27.5981 279.338 27.4072 278.452 27.0255C277.577 26.6437 276.882 26.1819 276.364 25.6401L277.196 22.2412C277.602 22.9801 278.187 23.6081 278.95 24.1253C279.714 24.6303 280.527 24.8827 281.389 24.8827C282.115 24.8827 282.694 24.6795 283.125 24.2731C283.556 23.8544 283.772 23.3434 283.772 22.7399C283.772 22.2597 283.661 21.8656 283.439 21.5577C283.217 21.2498 282.959 21.0035 282.663 20.8188C282.368 20.6218 282.115 20.474 281.906 20.3755L279.929 19.378C279.425 19.1194 278.92 18.8115 278.415 18.4544C277.91 18.0849 277.485 17.617 277.14 17.0505C276.808 16.4717 276.641 15.7574 276.641 14.9077C276.641 13.9964 276.851 13.1959 277.269 12.5063C277.688 11.8167 278.273 11.281 279.024 10.8992C279.788 10.5052 280.668 10.3081 281.666 10.3081C282.626 10.3081 283.482 10.4682 284.233 10.7884C284.985 11.0963 285.588 11.4288 286.044 11.7859L285.249 15.1109C284.806 14.5075 284.252 14.0026 283.587 13.5962C282.922 13.1898 282.238 12.9866 281.537 12.9866C280.896 12.9866 280.397 13.159 280.04 13.5038C279.695 13.8363 279.523 14.255 279.523 14.7599C279.523 15.0924 279.597 15.3818 279.745 15.6281C279.905 15.8744 280.108 16.0899 280.354 16.2747C280.613 16.4471 280.89 16.6072 281.186 16.7549L283.199 17.7524C283.507 17.9002 283.852 18.0972 284.233 18.3435C284.628 18.5898 285.009 18.9039 285.379 19.2856C285.748 19.6551 286.05 20.1107 286.284 20.6526C286.53 21.1821 286.653 21.8163 286.653 22.5552C286.653 23.5158 286.425 24.3778 285.97 25.1413C285.527 25.8925 284.905 26.4898 284.104 26.9331C283.316 27.3765 282.374 27.5981 281.278 27.5981Z" fill="#0A1F8F"/>
<path d="M131.843 27.2656V23.2017H123.807L130.236 10.6406H133.284L128.019 20.7819H131.898V17.346L134.595 15.9052V20.7819H136.683V23.2017H134.651V27.2656H131.843Z" fill="#D14836"/>
<path d="M18.9865 1.1084C23.5118 1.1084 27.6554 2.79819 30.8038 5.57617L30.8048 5.57812C31.1088 5.84555 31.4058 6.12718 31.6954 6.41992L25.0314 13.084L24.173 13.9414C23.8197 13.5795 23.4281 13.2529 23.005 12.9707H23.006C21.8546 12.1987 20.4749 11.749 18.9865 11.749C18.8232 11.749 18.5792 11.7462 18.3234 11.7822C18.0803 11.8039 17.8286 11.8378 17.5812 11.8877L17.3136 11.9482C15.8162 12.3108 14.4945 13.1273 13.5148 14.2637C13.4322 14.3545 13.3566 14.4469 13.2863 14.5381L13.0909 14.8066C12.2542 15.9951 11.7638 17.4272 11.7638 18.9941C11.7638 20.5612 12.2542 22.0107 13.0997 23.1943L13.1027 23.1982C14.1049 24.5899 15.5852 25.6277 17.3263 26.0391V26.04C17.3315 26.0413 17.3367 26.0427 17.3419 26.0439V26.043C17.5214 26.0872 17.6815 26.117 17.8292 26.1416V26.1406C18.2249 26.2124 18.6205 26.2392 18.9982 26.2393C20.484 26.2393 21.8607 25.79 23.0109 25.0205L23.0118 25.0215C23.4358 24.7414 23.8283 24.4123 24.1847 24.0459L25.0431 24.9043L30.4288 30.2891V30.2998L30.7531 30.625L31.7081 31.5791C31.4216 31.8684 31.124 32.1508 30.8156 32.4229V32.4238C27.6671 35.2018 23.5234 36.8916 18.9982 36.8916C12.6196 36.8915 7.01177 33.5388 3.84094 28.499H4.07922C7.21631 33.4204 12.7276 36.6942 18.9982 36.6943C23.4142 36.6943 27.4654 35.0692 30.5626 32.3789L31.4601 31.5986L30.6193 30.7578L24.9093 25.0488L24.2296 24.3691L23.4611 24.9463C22.2163 25.8797 20.6745 26.4375 18.9982 26.4375C18.504 26.4375 18.0174 26.3855 17.5499 26.292C16.0461 25.9912 14.7008 25.2451 13.6788 24.1924L13.3527 23.8564H1.77454C1.63708 23.3625 1.5187 22.8579 1.422 22.3447C1.21982 21.2544 1.10853 20.122 1.10852 18.9941C1.10852 17.8584 1.20989 16.7408 1.42102 15.6631L1.42493 15.6396C1.51214 15.1383 1.63112 14.639 1.77161 14.1436H13.337L13.6632 13.8115C14.7013 12.7529 16.0375 12.0081 17.5382 11.708C18.0057 11.6145 18.4922 11.5625 18.9865 11.5625C20.6561 11.5625 22.2065 12.1122 23.4445 13.0508L24.214 13.6338L24.8976 12.9512L30.6075 7.24219L31.4484 6.40137L30.5509 5.62109C27.4537 2.93074 23.4026 1.30566 18.9865 1.30566C12.7158 1.30571 7.20463 4.57959 4.0675 9.50098H3.82825C6.99906 4.46098 12.6077 1.10844 18.9865 1.1084ZM1.70129 15.2129C1.43451 16.4322 1.29504 17.6891 1.29504 18.9941C1.29505 20.2983 1.43435 21.5671 1.70129 22.7871L2.77161 22.5518V23.6582H12.9386L12.213 22.0859C11.7807 21.1495 11.5412 20.0947 11.5411 18.9941C11.5411 17.8952 11.78 16.852 12.213 15.9141L12.9386 14.3418H1.89172L1.70129 15.2129Z" stroke="#D14836" stroke-width="2.21667"/>
<path d="M51.1821 27.5985C49.9753 27.5985 48.8423 27.3768 47.7832 26.9335C46.7242 26.4778 45.7882 25.856 44.9755 25.0678C44.175 24.2797 43.5469 23.3622 43.0913 22.3154C42.648 21.2687 42.4263 20.148 42.4263 18.9535C42.4263 17.759 42.648 16.6383 43.0913 15.5916C43.5469 14.5448 44.175 13.6273 44.9755 12.8392C45.7882 12.051 46.7242 11.4353 47.7832 10.992C48.8423 10.5363 49.9753 10.3085 51.1821 10.3085C52.3028 10.3085 53.3557 10.4994 54.3409 10.8811C55.3261 11.2506 56.2066 11.7801 56.9824 12.4697L56.1142 15.9979C55.6339 15.1975 54.9751 14.5325 54.1377 14.0029C53.3003 13.4734 52.3397 13.2086 51.256 13.2086C50.2093 13.2086 49.261 13.4672 48.4113 13.9845C47.5616 14.5017 46.8843 15.1913 46.3793 16.0534C45.8868 16.9154 45.6405 17.8821 45.6405 18.9535C45.6405 20.0126 45.8868 20.9793 46.3793 21.8536C46.8843 22.7157 47.5616 23.4053 48.4113 23.9225C49.261 24.4397 50.2093 24.6984 51.256 24.6984C52.3274 24.6984 53.2818 24.4336 54.1192 23.9041C54.9689 23.3622 55.6339 22.6972 56.1142 21.9091L56.9824 25.4372C56.2066 26.1146 55.3261 26.6441 54.3409 27.0259C53.3557 27.4076 52.3028 27.5985 51.1821 27.5985Z" fill="#0A1F8F"/>
<path d="M62.1823 27.266V10.641H65.2672V24.5506H70.4579V27.266H62.1823Z" fill="#0A1F8F"/>
<path d="M74.2718 27.266L81.5129 10.0684H81.5499L88.8095 27.266H85.7615L84.3392 23.8117H78.6313L77.2089 27.266H74.2718ZM79.6472 21.3734H83.3232L82.455 19.286C82.2703 18.8427 82.0979 18.4116 81.9378 17.9929C81.7777 17.5619 81.6238 17.0632 81.476 16.4967C81.3282 17.0632 81.1743 17.5558 81.0142 17.9745C80.8664 18.3932 80.7002 18.8303 80.5154 19.286L79.6472 21.3734Z" fill="#0A1F8F"/>
<path d="M93.79 27.266V10.641H96.8934V27.266H93.79Z" fill="#0A1F8F"/>
<path d="M103.516 27.266V10.0868L111.367 20.1172L119.088 10.0868V27.266H116.151V21.7613C116.151 21.2317 116.157 20.6406 116.17 19.9879C116.182 19.3229 116.237 18.5717 116.336 17.7343C115.954 18.3747 115.585 18.935 115.228 19.4153C114.87 19.8956 114.544 20.3389 114.249 20.7453L111.312 24.7538L108.264 20.7453C107.968 20.3635 107.629 19.9141 107.248 19.3968C106.878 18.8673 106.509 18.2947 106.139 17.6789C106.238 18.5533 106.293 19.3168 106.306 19.9695C106.318 20.6222 106.324 21.2194 106.324 21.7613V27.266H103.516Z" fill="#0A1F8F"/>
<path d="M131.843 27.266V23.2021H123.807L130.236 10.641H133.284L128.019 20.7822H131.898V17.3464L134.595 15.9056V20.7822H136.683V23.2021H134.651V27.266H131.843Z" fill="#D14836"/>
<path d="M140.424 27.266L147.665 10.0684H147.702L154.961 27.266H151.913L150.491 23.8117H144.783L143.361 27.266H140.424ZM145.799 21.3734H149.475L148.607 19.286C148.422 18.8427 148.25 18.4116 148.09 17.9929C147.93 17.5619 147.776 17.0632 147.628 16.4967C147.48 17.0632 147.326 17.5558 147.166 17.9745C147.018 18.3932 146.852 18.8303 146.667 19.286L145.799 21.3734Z" fill="#0A1F8F"/>
<path d="M167.682 27.5985C166.475 27.5985 165.342 27.3768 164.283 26.9335C163.224 26.4778 162.288 25.856 161.475 25.0678C160.675 24.2797 160.047 23.3622 159.591 22.3154C159.148 21.2687 158.926 20.148 158.926 18.9535C158.926 17.759 159.148 16.6383 159.591 15.5916C160.047 14.5448 160.675 13.6273 161.475 12.8392C162.288 12.051 163.224 11.4353 164.283 10.992C165.342 10.5363 166.475 10.3085 167.682 10.3085C168.802 10.3085 169.855 10.4994 170.841 10.8811C171.826 11.2506 172.706 11.7801 173.482 12.4697L172.614 15.9979C172.134 15.1975 171.475 14.5325 170.637 14.0029C169.8 13.4734 168.839 13.2086 167.756 13.2086C166.709 13.2086 165.761 13.4672 164.911 13.9845C164.061 14.5017 163.384 15.1913 162.879 16.0534C162.386 16.9154 162.14 17.8821 162.14 18.9535C162.14 20.0126 162.386 20.9793 162.879 21.8536C163.384 22.7157 164.061 23.4053 164.911 23.9225C165.761 24.4397 166.709 24.6984 167.756 24.6984C168.827 24.6984 169.781 24.4336 170.619 23.9041C171.469 23.3622 172.134 22.6972 172.614 21.9091L173.482 25.4372C172.706 26.1146 171.826 26.6441 170.841 27.0259C169.855 27.4076 168.802 27.5985 167.682 27.5985Z" fill="#0A1F8F"/>
<path d="M186.551 27.5985C185.344 27.5985 184.211 27.3768 183.152 26.9335C182.093 26.4778 181.157 25.856 180.345 25.0678C179.544 24.2797 178.916 23.3622 178.46 22.3154C178.017 21.2687 177.795 20.148 177.795 18.9535C177.795 17.759 178.017 16.6383 178.46 15.5916C178.916 14.5448 179.544 13.6273 180.345 12.8392C181.157 12.051 182.093 11.4353 183.152 10.992C184.211 10.5363 185.344 10.3085 186.551 10.3085C187.672 10.3085 188.725 10.4994 189.71 10.8811C190.695 11.2506 191.576 11.7801 192.351 12.4697L191.483 15.9979C191.003 15.1975 190.344 14.5325 189.507 14.0029C188.669 13.4734 187.709 13.2086 186.625 13.2086C185.578 13.2086 184.63 13.4672 183.78 13.9845C182.931 14.5017 182.253 15.1913 181.748 16.0534C181.256 16.9154 181.01 17.8821 181.01 18.9535C181.01 20.0126 181.256 20.9793 181.748 21.8536C182.253 22.7157 182.931 23.4053 183.78 23.9225C184.63 24.4397 185.578 24.6984 186.625 24.6984C187.696 24.6984 188.651 24.4336 189.488 23.9041C190.338 23.3622 191.003 22.6972 191.483 21.9091L192.351 25.4372C191.576 26.1146 190.695 26.6441 189.71 27.0259C188.725 27.4076 187.672 27.5985 186.551 27.5985Z" fill="#0A1F8F"/>
<path d="M197.681 27.266V10.641H200.784V27.266H197.681Z" fill="#0A1F8F"/>
<path d="M207.407 27.266V10.641H213.004C214.371 10.641 215.602 10.8688 216.698 11.3245C217.794 11.7678 218.73 12.3774 219.506 13.1532C220.294 13.9167 220.892 14.8034 221.298 15.8132C221.717 16.8107 221.926 17.8575 221.926 18.9535C221.926 20.0495 221.717 21.1024 221.298 22.1122C220.892 23.1097 220.294 23.9964 219.506 24.7722C218.73 25.5358 217.794 26.1453 216.698 26.601C215.602 27.0443 214.371 27.266 213.004 27.266H207.407ZM210.326 24.5506H212.727C213.749 24.5506 214.636 24.3966 215.387 24.0888C216.138 23.7809 216.766 23.3684 217.271 22.8511C217.776 22.3216 218.152 21.7243 218.398 21.0593C218.644 20.382 218.767 19.6801 218.767 18.9535C218.767 18.2269 218.644 17.5311 218.398 16.8661C218.152 16.1888 217.776 15.5854 217.271 15.0559C216.766 14.5263 216.138 14.1138 215.387 13.8182C214.636 13.5103 213.749 13.3564 212.727 13.3564H210.326V24.5506Z" fill="#0A1F8F"/>
<path d="M227.523 27.266V10.641H236.205V13.2641H230.442V16.0718H234.912V18.621H230.442V24.5506H236.205V27.266H227.523Z" fill="#0A1F8F"/>
<path d="M255.028 27.8202L244.628 17.2356V27.266H241.821V10.0868L252.202 20.6529V10.641H255.028V27.8202Z" fill="#0A1F8F"/>
<path d="M260.413 13.3564V10.641H271.81V13.3564H267.654V27.266H264.569V13.3564H260.413Z" fill="#0A1F8F"/>
<path d="M281.278 27.5985C280.28 27.5985 279.338 27.4076 278.452 27.0259C277.577 26.6441 276.882 26.1823 276.364 25.6404L277.196 22.2416C277.602 22.9804 278.187 23.6085 278.95 24.1257C279.714 24.6306 280.527 24.8831 281.389 24.8831C282.115 24.8831 282.694 24.6799 283.125 24.2735C283.556 23.8548 283.772 23.3437 283.772 22.7403C283.772 22.26 283.661 21.866 283.439 21.5581C283.217 21.2502 282.959 21.0039 282.663 20.8192C282.368 20.6222 282.115 20.4744 281.906 20.3759L279.929 19.3784C279.425 19.1197 278.92 18.8119 278.415 18.4547C277.91 18.0853 277.485 17.6173 277.14 17.0509C276.808 16.4721 276.641 15.7578 276.641 14.9081C276.641 13.9968 276.851 13.1963 277.269 12.5067C277.688 11.8171 278.273 11.2814 279.024 10.8996C279.788 10.5055 280.668 10.3085 281.666 10.3085C282.626 10.3085 283.482 10.4686 284.233 10.7888C284.985 11.0966 285.588 11.4291 286.044 11.7863L285.249 15.1113C284.806 14.5078 284.252 14.0029 283.587 13.5966C282.922 13.1902 282.238 12.987 281.537 12.987C280.896 12.987 280.397 13.1594 280.04 13.5042C279.695 13.8367 279.523 14.2554 279.523 14.7603C279.523 15.0928 279.597 15.3822 279.745 15.6285C279.905 15.8748 280.108 16.0903 280.354 16.275C280.613 16.4474 280.89 16.6075 281.186 16.7553L283.199 17.7528C283.507 17.9006 283.852 18.0976 284.233 18.3439C284.628 18.5902 285.009 18.9042 285.379 19.286C285.748 19.6554 286.05 20.1111 286.284 20.6529C286.53 21.1825 286.653 21.8167 286.653 22.5556C286.653 23.5161 286.425 24.3782 285.97 25.1417C285.527 25.8929 284.905 26.4902 284.104 26.9335C283.316 27.3768 282.374 27.5985 281.278 27.5985Z" fill="#0A1F8F"/>
</svg>
