<svg width="61" height="34" viewBox="0 0 61 34" fill="none" xmlns="http://www.w3.org/2000/svg">
<path d="M60.8762 16.4339L56.2349 5.59154C56.1165 5.31158 55.9184 5.07271 55.6653 4.9047C55.4122 4.73668 55.1153 4.64696 54.8116 4.64671H50.1703V1.5489C50.1703 1.13811 50.0073 0.74414 49.7172 0.453664C49.427 0.163188 49.0335 0 48.6232 0H1.5471C1.13678 0 0.743274 0.163188 0.453136 0.453664C0.162998 0.74414 0 1.13811 0 1.5489V27.8803C0 28.2911 0.162998 28.685 0.453136 28.9755C0.743274 29.266 1.13678 29.4292 1.5471 29.4292H4.8579C5.21417 30.7417 5.99193 31.9003 7.07118 32.7264C8.15043 33.5524 9.4712 34 10.8297 34C12.1882 34 13.509 33.5524 14.5882 32.7264C15.6675 31.9003 16.4453 30.7417 16.8015 29.4292H44.1985C44.5547 30.7417 45.3325 31.9003 46.4118 32.7264C47.491 33.5524 48.8118 34 50.1703 34C51.5288 34 52.8496 33.5524 53.9288 32.7264C55.0081 31.9003 55.7858 30.7417 56.1421 29.4292H59.4529C59.8632 29.4292 60.2567 29.266 60.5469 28.9755C60.837 28.685 61 28.2911 61 27.8803V17.0379C60.9996 16.8303 60.9575 16.6249 60.8762 16.4339ZM50.1703 7.74452H53.7905L57.1013 15.489H50.1703V7.74452ZM10.8297 30.9781C10.2177 30.9781 9.6195 30.7964 9.11066 30.456C8.60182 30.1156 8.20523 29.6318 7.97104 29.0658C7.73685 28.4997 7.67557 27.8768 7.79496 27.2759C7.91435 26.675 8.20905 26.123 8.64178 25.6898C9.07451 25.2566 9.62585 24.9615 10.2261 24.842C10.8263 24.7225 11.4484 24.7838 12.0138 25.0183C12.5792 25.2527 13.0625 25.6498 13.4024 26.1592C13.7424 26.6687 13.9239 27.2676 13.9239 27.8803C13.9239 28.7019 13.5979 29.4898 13.0176 30.0708C12.4374 30.6517 11.6503 30.9781 10.8297 30.9781ZM44.1985 26.3314H16.8015C16.4453 25.0189 15.6675 23.8602 14.5882 23.0342C13.509 22.2081 12.1882 21.7606 10.8297 21.7606C9.4712 21.7606 8.15043 22.2081 7.07118 23.0342C5.99193 23.8602 5.21417 25.0189 4.8579 26.3314H3.0942V3.09781H47.0761V22.552C46.3716 22.9614 45.7548 23.506 45.261 24.1545C44.7672 24.8031 44.4061 25.5428 44.1985 26.3314ZM50.1703 30.9781C49.5583 30.9781 48.9601 30.7964 48.4512 30.456C47.9424 30.1156 47.5458 29.6318 47.3116 29.0658C47.0774 28.4997 47.0162 27.8768 47.1355 27.2759C47.2549 26.675 47.5496 26.123 47.9824 25.6898C48.4151 25.2566 48.9664 24.9615 49.5666 24.842C50.1669 24.7225 50.789 24.7838 51.3544 25.0183C51.9198 25.2527 52.403 25.6498 52.743 26.1592C53.083 26.6687 53.2645 27.2676 53.2645 27.8803C53.2645 28.7019 52.9385 29.4898 52.3582 30.0708C51.7779 30.6517 50.9909 30.9781 50.1703 30.9781ZM57.9058 26.3314H56.1421C55.8 25.0048 55.0283 23.8291 53.9478 22.9884C52.8672 22.1476 51.5388 21.6891 50.1703 21.6847V18.5869H57.9058V26.3314Z" fill="black"/>
</svg>
